<?xml version="1.0" encoding="UTF-8" standalone="no"?>
<!-- Created with Inkscape (http://www.inkscape.org/) -->

<svg
   width="450mm"
   height="210mm"
   viewBox="0 0 450 210"
   version="1.1"
   id="svg5"
   inkscape:version="1.1 (c68e22c387, 2021-05-23)"
   sodipodi:docname="svg-auth.svg"
   xmlns:inkscape="http://www.inkscape.org/namespaces/inkscape"
   xmlns:sodipodi="http://sodipodi.sourceforge.net/DTD/sodipodi-0.dtd"
   xmlns="http://www.w3.org/2000/svg"
   xmlns:svg="http://www.w3.org/2000/svg">
  <sodipodi:namedview
     id="namedview7"
     pagecolor="#ffffff"
     bordercolor="#111111"
     borderopacity="1"
     inkscape:pageshadow="0"
     inkscape:pageopacity="0"
     inkscape:pagecheckerboard="1"
     inkscape:document-units="mm"
     showgrid="false"
     inkscape:zoom="0.51150168"
     inkscape:cx="769.30344"
     inkscape:cy="415.44341"
     inkscape:window-width="1920"
     inkscape:window-height="1001"
     inkscape:window-x="-9"
     inkscape:window-y="-9"
     inkscape:window-maximized="1"
     inkscape:current-layer="layer1"
     width="297mm" />
  <defs
     id="defs2" />
  <g
     inkscape:label="Layer 1"
     inkscape:groupmode="layer"
     id="layer1">
    <path
       d="m 91.321668,62.596861 0.97608,18.453642 -7.07979,-19.881738 c -17.31982,-3.282417 -36.473662,-1.061113 -36.473662,-1.061113 0,0 2.90726,39.894248 19.666372,53.761318 16.75911,13.86707 30.85452,8.7459 41.023772,-3.5442 10.16911,-12.28992 12.56118,-27.094777 -4.19793,-40.961847 -3.73024,-3.086524 -8.599772,-5.255812 -13.914842,-6.766062 z"
       fill="#f2f2f2"
       id="path7128"
       style="stroke-width:0.841461" />
    <path
       d="m 90.590878,84.176241 0.82606,0.683513 c 9.561672,7.994202 15.713642,15.812836 18.359872,23.355526 0.0404,0.10936 0.0734,0.21929 0.11384,0.32866 l -0.51113,0.17648 -0.49346,0.16345 c -2.77986,-8.23881 -9.800082,-16.148815 -18.138182,-23.123843 -0.26545,-0.228736 -0.53755,-0.457769 -0.81343,-0.682153 -3.55577,-2.921526 -7.32169,-5.672262 -11.09351,-8.20777 -0.2902,-0.198844 -0.58792,-0.396905 -0.88562,-0.594925 -4.9959,-3.320841 -9.96329,-6.259827 -14.36761,-8.705334 -0.31047,-0.174342 -0.62436,-0.344487 -0.93419,-0.511277 -7.471765,-4.108677 -13.184925,-6.720898 -14.456444,-7.290734 -0.153744,-0.07231 -0.24028,-0.109258 -0.260066,-0.118621 l 0.211037,-0.479893 5.41e-4,-0.0086 0.214428,-0.483991 c 0.02088,0.0082 0.310299,0.132928 0.838681,0.376931 1.981534,0.90236 7.318438,3.403098 14.041143,7.084904 0.30228,0.167568 0.6162,0.337734 0.92686,0.511801 3.57627,1.980825 7.50636,4.275096 11.51007,6.830025 q 1.51009,0.960137 2.95287,1.926625 c 0.30096,0.194122 0.59867,0.392169 0.88887,0.591003 q 6.1167,4.110313 11.07166,8.175832 z"
       fill="#ffffff"
       id="path7130"
       style="stroke-width:0.841461" />
    <path
       d="m 63.240568,66.140881 c -0.18988,0.304468 -0.38317,0.612999 -0.58806,0.918838 a 29.283021,29.283021 0 0 1 -1.78982,2.404647 28.484415,28.484415 0 0 1 -9.993348,7.714585 c 0.07461,0.351093 0.149255,0.702185 0.224571,1.060759 a 29.539044,29.539044 0 0 0 10.586677,-8.098584 30.298018,30.298018 0 0 0 1.90618,-2.570164 c 0.20142,-0.301801 0.39476,-0.610343 0.58058,-0.918133 a 29.290107,29.290107 0 0 0 3.42194,-8.157169 q -0.55563,-0.01539 -1.08885,-0.0329 a 28.386612,28.386612 0 0 1 -3.25987,7.678116 z"
       fill="#ffffff"
       id="path7132"
       style="stroke-width:0.841461" />
    <path
       d="m 78.630268,75.409462 q -0.32571,0.443535 -0.67586,0.866855 c -0.067,0.08901 -0.14165,0.179184 -0.21265,0.264997 A 28.635491,28.635491 0 0 1 53.299177,86.822952 c 0.10603,0.363052 0.21185,0.726449 0.325272,1.088933 a 29.69878,29.69878 0 0 0 24.935199,-10.69382 c 0.0947,-0.114435 0.18957,-0.229101 0.28033,-0.346788 0.23291,-0.289489 0.45807,-0.578552 0.6792,-0.870899 a 29.541746,29.541746 0 0 0 5.77992,-15.64462 c -0.34952,-0.06878 -0.69914,-0.137541 -1.05208,-0.202214 a 28.438884,28.438884 0 0 1 -5.61676,15.25591 z"
       fill="#ffffff"
       id="path7134"
       style="stroke-width:0.841461" />
    <path
       d="m 90.590878,84.176241 c -0.21234,0.306511 -0.43284,0.606369 -0.65741,0.902763 -0.24155,0.316876 -0.48726,0.630294 -0.74103,0.936996 a 28.712956,28.712956 0 0 1 -33.46485,8.038431 c 0.179021,0.458133 0.353868,0.912894 0.539604,1.362834 a 29.764414,29.764414 0 0 0 33.743136,-8.72451 c 0.25378,-0.306701 0.50364,-0.616677 0.73765,-0.932897 0.23217,-0.297047 0.45261,-0.596908 0.669,-0.900114 a 29.677339,29.677339 0 0 0 5.12103,-21.184571 c -0.37379,-0.164396 -0.75341,-0.313395 -1.13722,-0.465606 a 28.620286,28.620286 0 0 1 -4.80988,20.966697 z"
       fill="#ffffff"
       id="path7136"
       style="stroke-width:0.841461" />
    <rect
       x="294.96222"
       y="45.582211"
       width="135.46228"
       height="82.065765"
       fill="#f0f0f0"
       id="rect7138"
       style="stroke-width:0.436974" />
    <path
       d="M 428.14503,27.997022 H 239.3718 a 0.43697507,0.43697507 0 0 1 0,-0.873949 h 188.77323 a 0.43697507,0.43697507 0 0 1 0,0.873949 z"
       fill="#cacaca"
       id="path7140"
       style="stroke-width:0.436974" />
    <circle
       cx="249.20714"
       cy="17.072641"
       fill="#3f3d56"
       id="circle7142"
       style="stroke-width:0.436974"
       r="4.8067255" />
    <circle
       cx="265.81219"
       cy="17.072641"
       fill="#3f3d56"
       id="circle7144"
       style="stroke-width:0.436974"
       r="4.8067255" />
    <circle
       cx="282.41727"
       cy="17.072641"
       fill="#3f3d56"
       id="circle7146"
       style="stroke-width:0.436974"
       r="4.8067255" />
    <path
       d="m 372.31298,85.614483 -8.24582,-8.498107 a 1.8742866,1.8742866 0 0 0 -1.37841,-0.553822 h -0.0246 a 1.8742909,1.8742909 0 0 0 -1.37841,0.553822 l -8.24581,8.498107 a 1.8196691,1.8196691 0 0 0 -0.0864,2.571936 q 0.0418,0.04466 0.0864,0.08643 a 2.0353862,2.0353862 0 0 0 2.78143,0 l 4.88596,-5.107477 v 13.168681 a 1.9711202,1.9711202 0 0 0 3.9383,0 V 83.165368 l 4.88594,5.107477 a 2.0353862,2.0353862 0 0 0 2.78143,0 1.8196691,1.8196691 0 0 0 0.0864,-2.571934 q -0.0418,-0.04466 -0.0864,-0.08643 z"
       fill="#ffffff"
       id="path7148"
       style="stroke-width:0.436974" />
    <path
       d="m 362.69339,106.86277 a 19.351752,19.351752 0 1 1 19.35175,-19.351758 19.373643,19.373643 0 0 1 -19.35175,19.351758 z m 0,-37.986778 a 18.63502,18.63502 0 1 0 18.635,18.63502 18.656148,18.656148 0 0 0 -18.635,-18.63502 z"
       fill="#ffffff"
       id="path7150"
       style="stroke-width:0.436974" />
    <path
       id="a4df8293-127a-4fe1-b900-32b0737a0281-79"
       data-name="Path 138"
       d="m 279.14801,114.77977 h -97.55502 c -0.9971,-0.002 -1.8053,-1.65546 -1.80656,-3.69632 V 61.568831 c 0,-2.040456 0.80946,-3.692938 1.80656,-3.696331 h 97.55502 c 0.9971,0.0027 1.8053,1.655461 1.80657,3.696331 V 111.083 c -0.001,2.04046 -0.81076,3.69421 -1.80657,3.69677 z"
       fill="#ffffff"
       style="stroke-width:0.336939" />
    <g
       id="f5addd83-a4bf-4cbc-bc49-a1c93dc12b76"
       data-name="Group 38"
       transform="matrix(0.33693893,0,0,0.33693893,37.837216,-7.9873271)">
      <circle
         id="b85ea7ab-2687-4539-bc87-5f9af2589fda"
         data-name="Ellipse 7"
         cx="519.76654"
         cy="253.64767"
         r="25.31818"
         fill="#3f3d56" />
      <path
         id="a93bdb3c-c63a-46e2-832f-5ad698cb7678-80"
         data-name="Path 63"
         d="M 775.88793,479.64341 H 651.68564 a 2.54194,2.54194 0 0 1 -0.46362,-0.0378 L 709.96645,377.858 a 4.112,4.112 0 0 1 7.15945,0 l 39.42288,68.28111 1.8897,3.26664 z"
         transform="translate(-176.72638,-147.97638)"
         fill="#aed581" />
      <path
         id="a9a16db8-129a-402e-ab5a-cd8e8637e69a-81"
         data-name="Path 65"
         d="M 845.03958,479.64468 H 737.614 l 20.81567,-30.23517 1.4979,-2.1782 27.126,-39.404 a 5.4889,5.4889 0 0 1 8.1534,-0.48627 4.90238,4.90238 0 0 1 0.39053,0.48627 z"
         transform="translate(-176.72638,-147.97638)"
         fill="#aed581" />
    </g>
    <path
       id="e7d95ff1-9828-4401-a808-15868bd1799b-82"
       data-name="Path 138"
       d="m 279.14801,114.77977 h -97.55502 c -0.9971,-0.002 -1.8053,-1.65546 -1.80656,-3.69632 V 61.568831 c 0,-2.040456 0.80946,-3.692938 1.80656,-3.696331 h 97.55502 c 0.9971,0.0027 1.8053,1.655461 1.80657,3.696331 V 111.083 c -0.001,2.04046 -0.81076,3.69421 -1.80657,3.69677 z M 181.59299,59.350934 c -0.59851,0 -1.08327,0.993696 -1.08412,2.217874 V 111.083 c 0,1.22416 0.48559,2.2166 1.08412,2.21786 h 97.55502 c 0.59851,0 1.08327,-0.99329 1.08412,-2.21786 V 61.568831 c 0,-1.224173 -0.48559,-2.216603 -1.08412,-2.21787 z"
       fill="#e6e6e6"
       style="stroke-width:0.336939" />
    <text
       xml:space="preserve"
       style="font-size:47.9296px;line-height:1.25;font-family:'Oh Chewy';-inkscape-font-specification:'Oh Chewy';stroke-width:2.9956"
       x="48.130482"
       y="62.387676"
       id="text2776"><tspan
         sodipodi:role="line"
         id="tspan2774"
         style="font-style:normal;font-variant:normal;font-weight:normal;font-stretch:normal;font-family:'Arial Rounded MT Bold';-inkscape-font-specification:'Arial Rounded MT Bold, ';stroke-width:2.9956"
         x="48.130482"
         y="62.387676" /></text>
    <g
       aria-label="LOGIN"
       id="text3590"
       style="font-size:102.398px;line-height:1.25;font-family:'Oh Chewy';-inkscape-font-specification:'Oh Chewy';stroke-width:0.767989"
       transform="matrix(1.3276867,0,0,1.3276867,-278.40768,-108.89792)">
      <path
         d="m 238.0565,168.71693 v 53.34896 h 30.09942 q 3.59993,0 5.49989,1.74997 1.94996,1.74997 1.94996,4.39991 0,2.69995 -1.89996,4.39992 -1.89997,1.64997 -5.54989,1.64997 h -35.8493 q -4.84991,0 -6.99987,-2.14996 -2.09996,-2.14996 -2.09996,-6.94987 v -56.4489 q 0,-4.49991 1.99996,-6.74986 2.04996,-2.24996 5.3499,-2.24996 3.34993,0 5.39989,2.24996 2.09996,2.19995 2.09996,6.74986 z"
         style="font-family:'Arial Rounded MT Bold';-inkscape-font-specification:'Arial Rounded MT Bold, ';fill:#33691e"
         id="path57112" />
      <path
         d="m 312.50505,159.71711 q 11.39978,0 19.54962,4.64991 8.19984,4.59991 12.39976,13.14974 4.19992,8.49984 4.19992,19.99961 0,8.49984 -2.29996,15.4497 -2.29995,6.94987 -6.89986,12.04977 -4.59991,5.0999 -11.29978,7.79984 -6.69987,2.69995 -15.3497,2.69995 -8.59984,0 -15.3997,-2.74995 -6.79987,-2.79994 -11.34978,-7.84984 -4.54991,-5.0499 -6.89987,-12.14977 -2.29995,-7.09986 -2.29995,-15.3497 0,-8.44983 2.39995,-15.49969 2.44995,-7.04987 7.04986,-11.99977 4.59991,-4.9499 11.19978,-7.54985 6.59988,-2.64995 14.99971,-2.64995 z m 21.09959,37.69926 q 0,-8.04984 -2.59995,-13.94972 -2.59995,-5.89989 -7.44985,-8.89983 -4.79991,-3.04994 -11.04979,-3.04994 -4.44991,0 -8.24984,1.69997 -3.74992,1.64996 -6.49987,4.8499 -2.69995,3.19994 -4.29992,8.19984 -1.54997,4.94991 -1.54997,11.14978 0,6.24988 1.54997,11.29978 1.59997,5.04991 4.44992,8.39984 2.89994,3.29994 6.59987,4.9499 3.74992,1.64997 8.19984,1.64997 5.69989,0 10.44979,-2.84994 4.79991,-2.84995 7.59986,-8.79983 2.84994,-5.94989 2.84994,-14.64972 z"
         style="font-family:'Arial Rounded MT Bold';-inkscape-font-specification:'Arial Rounded MT Bold, ';fill:#33691e"
         id="path57114" />
      <path
         d="m 428.3028,204.46624 v 14.04972 q 0,2.79995 -0.54999,4.49991 -0.54999,1.64997 -2.04996,2.99995 -1.44997,1.34997 -3.74992,2.59995 -6.64988,3.59993 -12.79976,5.24989 -6.14988,1.64997 -13.39973,1.64997 -8.44984,0 -15.3997,-2.59995 -6.94987,-2.59995 -11.84977,-7.54985 -4.89991,-4.9499 -7.54985,-11.99977 -2.59995,-7.04986 -2.59995,-15.74969 0,-8.54983 2.54995,-15.64969 2.54995,-7.09987 7.49985,-12.04977 4.9499,-4.9499 12.04976,-7.54985 7.09987,-2.64995 16.09969,-2.64995 7.39986,0 13.09975,1.99996 5.69988,1.94996 9.24981,4.9499 3.54994,2.99995 5.3499,6.34988 1.79997,3.34993 1.79997,5.94988 0,2.79995 -2.09996,4.79991 -2.04996,1.94996 -4.94991,1.94996 -1.59997,0 -3.09994,-0.74998 -1.44997,-0.74999 -2.44995,-2.09996 -2.74995,-4.29992 -4.64991,-6.49988 -1.89996,-2.19995 -5.1499,-3.69992 -3.19994,-1.49997 -8.19984,-1.49997 -5.1499,0 -9.19982,1.79996 -4.04992,1.74997 -6.94986,5.1499 -2.84995,3.34994 -4.39992,8.24984 -1.49997,4.8999 -1.49997,10.84979 0,12.89975 5.89989,19.84961 5.94988,6.94987 16.54967,6.94987 5.1499,0 9.64982,-1.34998 4.54991,-1.34997 9.19982,-3.84992 v -11.89977 h -11.49978 q -4.14992,0 -6.29988,-1.24998 -2.09996,-1.24997 -2.09996,-4.24991 0,-2.44996 1.74997,-4.04992 1.79997,-1.59997 4.84991,-1.59997 H 418.253 q 3.09994,0 5.24989,0.54999 2.14996,0.54999 3.44994,2.44995 1.34997,1.89996 1.34997,5.69989 z"
         style="font-family:'Arial Rounded MT Bold';-inkscape-font-specification:'Arial Rounded MT Bold, ';fill:#33691e"
         id="path57116" />
      <path
         d="m 443.05251,226.46581 v -57.74888 q 0,-4.49991 2.04996,-6.74986 2.04996,-2.24996 5.2999,-2.24996 3.34994,0 5.3999,2.24996 2.09996,2.19995 2.09996,6.74986 v 57.74888 q 0,4.54991 -2.09996,6.79987 -2.04996,2.24995 -5.3999,2.24995 -3.19994,0 -5.2999,-2.24995 -2.04996,-2.29996 -2.04996,-6.79987 z"
         style="font-family:'Arial Rounded MT Bold';-inkscape-font-specification:'Arial Rounded MT Bold, ';fill:#33691e"
         id="path57118" />
      <path
         d="m 493.85151,168.61694 28.54944,43.19915 v -43.59915 q 0,-4.24991 1.79997,-6.34987 1.84996,-2.14996 4.9499,-2.14996 3.19994,0 5.0499,2.14996 1.84997,2.09996 1.84997,6.34987 v 57.64888 q 0,9.64981 -7.99985,9.64981 -1.99996,0 -3.59993,-0.59999 -1.59996,-0.54999 -2.99994,-1.79996 -1.39997,-1.24998 -2.59995,-2.89995 -1.19997,-1.69996 -2.39995,-3.44993 l -27.84946,-42.69917 v 42.94917 q 0,4.19992 -1.94996,6.34987 -1.94996,2.14996 -4.9999,2.14996 -3.14994,0 -5.0499,-2.14996 -1.89997,-2.19995 -1.89997,-6.34987 v -56.5489 q 0,-3.59993 0.79999,-5.64989 0.94998,-2.24996 3.14994,-3.64993 2.19995,-1.44997 4.74991,-1.44997 1.99996,0 3.39993,0.64999 1.44997,0.64998 2.49995,1.74996 1.09998,1.09998 2.19996,2.84995 1.14997,1.74996 2.34995,3.64993 z"
         style="font-family:'Arial Rounded MT Bold';-inkscape-font-specification:'Arial Rounded MT Bold, ';fill:#33691e"
         id="path57120" />
    </g>
  </g>
</svg>
