<?xml version="1.0" encoding="UTF-8" standalone="no"?>
<!-- Created with Inkscape (http://www.inkscape.org/) -->

<svg
   width="450mm"
   height="210mm"
   viewBox="0 0 450 210"
   version="1.1"
   id="svg5"
   inkscape:version="1.1 (c68e22c387, 2021-05-23)"
   sodipodi:docname="one.svg"
   xmlns:inkscape="http://www.inkscape.org/namespaces/inkscape"
   xmlns:sodipodi="http://sodipodi.sourceforge.net/DTD/sodipodi-0.dtd"
   xmlns="http://www.w3.org/2000/svg"
   xmlns:svg="http://www.w3.org/2000/svg">
  <sodipodi:namedview
     id="namedview7"
     pagecolor="#ffffff"
     bordercolor="#111111"
     borderopacity="1"
     inkscape:pageshadow="0"
     inkscape:pageopacity="0"
     inkscape:pagecheckerboard="1"
     inkscape:document-units="mm"
     showgrid="false"
     inkscape:zoom="0.51150168"
     inkscape:cx="671.55205"
     inkscape:cy="593.35093"
     inkscape:window-width="1920"
     inkscape:window-height="1001"
     inkscape:window-x="-9"
     inkscape:window-y="-9"
     inkscape:window-maximized="1"
     inkscape:current-layer="layer1"
     width="297mm" />
  <defs
     id="defs2" />
  <g
     inkscape:label="Layer 1"
     inkscape:groupmode="layer"
     id="layer1">
    <path
       id="bde08021-c30f-4979-a9d8-cb90b72b5ca2-240-0-6-0"
       data-name="Path 2"
       d="m 300.27576,55.766549 -1.38686,4.097734 a 73.75997,53.106982 0.15122275 0 1 -7.79883,2.064597 l -0.20657,-1.899757 -0.71013,2.098106 c -3.28897,0.696152 -5.52856,1.007077 -5.52856,1.007077 0,0 2.92242,-8.313978 9.19591,-14.692494 l 7.39426,-0.977368 -5.76248,-0.566109 a 29.842773,21.486717 0.15122275 0 1 2.54821,-1.977902 c 9.16606,-6.230409 19.42808,-9.122175 22.92074,-6.45897 3.49265,2.663218 -1.10634,9.872941 -10.27241,16.10335 -2.84148,1.931498 -6.42252,3.488541 -10.01121,4.718406 z"
       fill="#f2f2f2"
       style="stroke-width:0.186305" />
    <path
       id="fa3b9e12-7275-481e-bee9-64fd9595a50d-239"
       data-name="Path 1"
       d="m 306.60358,186.27988 -1.27391,-5.02413 a 65.242004,65.242004 0 0 0 -6.92157,-2.48333 l -0.16079,2.33497 -0.65209,-2.57247 c -2.91697,-0.83384 -4.90141,-1.20068 -4.90141,-1.20068 0,0 2.67984,10.19293 8.30247,17.98546 l 6.55087,1.15077 -5.08919,0.73386 a 26.395692,26.395692 0 0 0 2.27575,2.41224 c 8.17837,7.59135 17.28772,11.07437 20.34604,7.77932 3.05832,-3.29504 -1.09234,-12.11989 -9.27071,-19.71046 -2.53537,-2.3534 -5.7203,-4.24193 -8.90854,-5.72865 z"
       fill="#f2f2f2"
       style="stroke-width:0.194192" />
    <path
       id="bde08021-c30f-4979-a9d8-cb90b72b5ca2-240"
       data-name="Path 2"
       d="m 318.71842,180.8227 1.50654,-4.95928 a 65.23668,65.23668 0 0 0 -4.64118,-5.7036 l -1.34459,1.9157 0.77133,-2.53924 c -2.06639,-2.2208 -3.57546,-3.56051 -3.57546,-3.56051 0,0 -2.97404,10.11097 -2.18951,19.68793 l 5.01305,4.37125 -4.73671,-2.0025 a 26.394308,26.394308 0 0 0 0.7018,3.24183 c 3.07717,10.72598 9.07477,18.41618 13.39592,17.17646 4.32117,-1.23972 5.32981,-10.93979 2.25264,-21.66579 -0.95387,-3.32514 -2.70432,-6.58813 -4.66507,-9.50858 z"
       fill="#f2f2f2"
       style="stroke-width:0.194192" />
    <path
       id="b3ac2088-de9b-4f7f-bc99-0ed9705c1a9d-241"
       data-name="Path 22"
       d="m 393.62515,98.434516 h -0.79464 V 76.665623 A 12.599743,12.599743 0 0 0 380.23077,64.065887 H 334.10889 A 12.599743,12.599743 0 0 0 321.50915,76.665623 V 196.09356 a 12.599743,12.599743 0 0 0 12.59974,12.59974 h 46.12188 a 12.599743,12.599743 0 0 0 12.59955,-12.59974 v -82.16351 h 0.79463 z"
       fill="#e6e6e6"
       style="stroke-width:0.194192" />
    <path
       id="b2715b96-3117-487c-acc0-20904544b5b7-242"
       data-name="Path 23"
       d="m 380.73916,67.342679 h -6.01994 a 4.470294,4.470294 0 0 1 -4.13939,6.158589 h -26.42269 a 4.470294,4.470294 0 0 1 -4.13901,-6.158589 h -5.623 a 9.4093668,9.4093668 0 0 0 -9.40936,9.40936 V 196.00656 a 9.4093668,9.4093668 0 0 0 9.40936,9.40936 h 46.34403 a 9.4093668,9.4093668 0 0 0 9.40936,-9.40936 v 0 -119.254713 a 9.4093668,9.4093668 0 0 0 -9.40936,-9.409168 z"
       fill="#ffffff"
       style="stroke-width:0.194192" />
    <path
       id="b06d66ec-6c84-45dd-8c27-1263a6253192-243"
       data-name="Path 6"
       d="m 351.66166,114.84761 a 4.7454637,4.7454637 0 0 1 2.37497,-4.11181 4.7479881,4.7479881 0 1 0 0,8.22304 4.7448636,4.7448636 0 0 1 -2.37497,-4.11123 z"
       fill="#cccccc"
       style="stroke-width:0.194192" />
    <path
       id="e73810fe-4cf4-40cc-8c7c-ca544ce30bd4-244"
       data-name="Path 7"
       d="m 357.63054,114.84761 a 4.7452578,4.7452578 0 0 1 2.37497,-4.11181 4.7479881,4.7479881 0 1 0 0,8.22304 4.7448636,4.7448636 0 0 1 -2.37497,-4.11123 z"
       fill="#cccccc"
       style="stroke-width:0.194192" />
    <circle
       id="a4813fcf-056e-4514-bb8b-e6506f49341f"
       data-name="Ellipse 1"
       cx="363.46375"
       cy="114.84745"
       fill="#d40106"
       style="stroke-width:0.194192"
       r="4.7479882" />
    <path
       id="bbe451c3-febc-41ba-8083-4c8307a2e73e-245"
       data-name="Path 8"
       d="m 371.39894,129.67726 h -27.67231 a 0.99484428,0.99484428 0 0 1 -0.9937,-0.99368 v -27.67233 a 0.99484428,0.99484428 0 0 1 0.9937,-0.99368 h 27.67231 a 0.99484428,0.99484428 0 0 1 0.99368,0.99368 v 27.67233 a 0.99484428,0.99484428 0 0 1 -0.99368,0.99368 z m -27.67231,-29.26198 a 0.59675124,0.59675124 0 0 0 -0.59618,0.59615 v 27.67233 a 0.59675124,0.59675124 0 0 0 0.59618,0.59618 h 27.67231 a 0.59675124,0.59675124 0 0 0 0.59617,-0.59618 v -27.67233 a 0.59675124,0.59675124 0 0 0 -0.59617,-0.59615 z"
       fill="#cccccc"
       style="stroke-width:0.194192" />
    <rect
       id="bb28937d-932f-4fdf-befe-f406e51091fe"
       data-name="Rectangle 1"
       x="335.13663"
       y="150.88939"
       width="42.440994"
       height="0.39751044"
       fill="#cccccc"
       style="stroke-width:0.194192" />
    <circle
       id="fcef55fc-4968-45b2-93bb-1a1080c85fc7"
       data-name="Ellipse 2"
       cx="336.47693"
       cy="147.06732"
       fill="#d40106"
       style="stroke-width:0.194192"
       r="1.3403114" />
    <rect
       id="ff33d889-4c74-4b91-85ef-b4882cc8fe76"
       data-name="Rectangle 2"
       x="335.13663"
       y="164.29175"
       width="42.440994"
       height="0.39751044"
       fill="#cccccc"
       style="stroke-width:0.194192" />
    <circle
       id="e8fa0310-b872-4adf-aedd-0c6eda09f3b8"
       data-name="Ellipse 3"
       cx="336.47693"
       cy="160.46985"
       fill="#d40106"
       style="stroke-width:0.194192"
       r="1.3403114" />
    <path
       d="m 376.80104,179.55373 h -13.41249 a 0.87482021,0.87482021 0 0 1 -0.87387,-0.87385 v -4.701 a 0.87481827,0.87481827 0 0 1 0.87387,-0.87387 h 13.41249 a 0.87481633,0.87481633 0 0 1 0.87387,0.87387 v 4.701 a 0.87481827,0.87481827 0 0 1 -0.87387,0.87385 z"
       fill="#d40106"
       id="path880"
       style="stroke-width:0.194192" />
    <circle
       id="e12ee00d-aa4a-4413-a013-11d20b7f97f7"
       data-name="Ellipse 7"
       cx="340.84897"
       cy="147.06732"
       fill="#d40106"
       style="stroke-width:0.194192"
       r="1.3403114" />
    <circle
       id="f58f497e-6949-45c8-be5f-eee2aa0f6586"
       data-name="Ellipse 8"
       cx="345.22101"
       cy="147.06732"
       fill="#d40106"
       style="stroke-width:0.194192"
       r="1.3403114" />
    <circle
       id="b4d4939a-c6e6-4f4d-ba6c-e8b05485017d"
       data-name="Ellipse 9"
       cx="340.84897"
       cy="160.46985"
       fill="#d40106"
       style="stroke-width:0.194192"
       r="1.3403114" />
    <circle
       id="aff120b1-519b-4e96-ac87-836aa55663de"
       data-name="Ellipse 10"
       cx="345.22101"
       cy="160.46985"
       fill="#d40106"
       style="stroke-width:0.194192"
       r="1.3403114" />
    <path
       d="m 402.34933,159.11525 a 1.9601151,1.9601151 0 0 1 0.27394,0.15288 l 8.70994,-3.71744 0.3109,-2.29442 3.48022,-0.0214 -0.20559,5.26225 -11.49614,3.04023 a 2.0599685,2.0599685 0 0 1 -0.0869,0.23466 1.9874749,1.9874749 0 1 1 -0.98638,-2.65688 z"
       fill="#ffb8b8"
       id="path887"
       style="stroke-width:0.194192" />
    <polygon
       points="636.982,687.734 636.98,735.021 624.72,735.021 618.888,687.733 "
       fill="#ffb8b8"
       id="polygon889"
       transform="matrix(0.19419175,0,0,0.19419175,292.69381,64.065887)" />
    <path
       d="m 412.30869,206.1206 h 4.59144 v 2.89091 h -7.48233 v 0 a 2.8909053,2.8909053 0 0 1 2.89089,-2.89091 z"
       fill="#2f2e41"
       id="path891"
       style="stroke-width:0.194192" />
    <polygon
       points="680.025,684.497 684.66,731.557 672.459,732.759 662.018,686.271 "
       fill="#ffb8b8"
       id="polygon893"
       transform="matrix(0.19419175,0,0,0.19419175,292.69381,64.065887)" />
    <path
       d="m 421.52085,205.85131 4.56933,-0.45007 0.28337,2.877 -7.44631,0.73343 v 0 a 2.8909053,2.8909053 0 0 1 2.59361,-3.16036 z"
       fill="#2f2e41"
       id="path895"
       style="stroke-width:0.194192" />
    <circle
       cx="417.0528"
       cy="138.74692"
       fill="#ffb8b8"
       id="circle897"
       style="stroke-width:0.194192"
       r="4.7695494" />
    <path
       d="m 413.47726,204.94383 a 0.86820409,0.86820409 0 0 1 -0.85736,-0.71798 c -1.23229,-6.84052 -5.26025,-29.20747 -5.35658,-29.82701 a 0.27708054,0.27708054 0 0 1 -0.002,-0.0431 v -1.6677 a 0.28915151,0.28915151 0 0 1 0.0542,-0.16934 l 0.53213,-0.74529 a 0.28710278,0.28710278 0 0 1 0.22206,-0.12139 c 3.03368,-0.14222 12.96894,-0.55904 13.44892,0.0405 v 0 c 0.48207,0.60267 0.31176,2.42872 0.2727,2.78867 l 0.002,0.0376 4.46356,28.54524 a 0.87626695,0.87626695 0 0 1 -0.7214,0.99712 l -2.78789,0.45931 a 0.87799328,0.87799328 0 0 1 -0.9759,-0.60059 c -0.86229,-2.75528 -3.75355,-12.02396 -4.75561,-15.61044 a 0.0969444,0.0969444 0 0 0 -0.1904,0.0269 c 0.05,3.41884 0.17106,12.14154 0.21278,15.15416 l 0.004,0.32447 a 0.87737967,0.87737967 0 0 1 -0.79479,0.88087 l -2.68834,0.24427 c -0.0272,0.002 -0.0546,0.003 -0.0816,0.003 z"
       fill="#2f2e41"
       id="path899"
       style="stroke-width:0.194192" />
    <path
       id="ae7af94f-88d7-4204-9f07-e3651de85c05-247"
       data-name="Path 99"
       d="m 414.02574,145.39189 c -0.83235,0.4948 -1.33042,1.40409 -1.6162,2.32935 a 22.075912,22.075912 0 0 0 -0.94852,5.27415 l -0.30208,5.35972 -3.73917,14.20898 c 3.2408,2.74215 5.11024,2.11894 9.47276,-0.12403 4.36254,-2.24297 4.86106,0.74788 4.86106,0.74788 l 0.87239,-12.09008 1.24639,-13.2113 a 5.8576348,5.8576348 0 0 0 -0.94407,-0.90768 9.6432669,9.6432669 0 0 0 -8.24192,-1.74684 z"
       fill="#d40106"
       style="stroke-width:0.194192" />
    <path
       d="m 412.81122,161.98492 a 2.0439865,2.0439865 0 0 1 0.2914,0.13671 l 8.61208,-4.31052 0.14293,-2.33527 3.5525,-0.24492 0.19039,5.3233 -11.50894,3.80604 a 2.0381977,2.0381977 0 1 1 -1.28036,-2.37534 z"
       fill="#ffb8b8"
       id="path902"
       style="stroke-width:0.194192" />
    <path
       id="a6768b0e-63d0-4b31-8462-9b2e0b00f0fd-248"
       data-name="Path 101"
       d="m 423.81002,147.94701 c 2.11893,0.74787 2.49218,8.85004 2.49218,8.85004 -2.49278,-1.37106 -5.48424,0.87253 -5.48424,0.87253 0,0 -0.62321,-2.11892 -1.37107,-4.86105 a 4.7634983,4.7634983 0 0 1 0.99705,-4.48704 c 0,0 1.24715,-1.1228 3.36608,-0.37448 z"
       fill="#d40106"
       style="stroke-width:0.194192" />
    <path
       id="bfd7963f-0cf8-4885-9d3a-2c00bccda2e3-249"
       data-name="Path 102"
       d="m 421.32937,140.00827 c -0.59423,-0.47546 -1.40502,0.38871 -1.40502,0.38871 l -0.47545,-4.27873 c 0,0 -2.97133,0.35595 -4.87295,-0.11872 -1.90163,-0.47471 -2.19875,1.72348 -2.19875,1.72348 a 15.259544,15.259544 0 0 1 -0.0595,-2.67421 c 0.11872,-1.06968 1.6639,-2.13937 4.3975,-2.85255 2.73357,-0.71317 4.15975,2.3771 4.15975,2.3771 1.90185,0.95071 1.04852,5.91039 0.45429,5.43495 z"
       fill="#2f2e41"
       style="stroke-width:0.194192" />
    <g
       aria-label="LOGIN"
       id="text3590"
       style="font-size:102.398px;line-height:1.25;font-family:'Oh Chewy';-inkscape-font-specification:'Oh Chewy';stroke-width:0.767989"
       transform="matrix(0.94739608,0,0,0.94739612,-207.72904,-15.229283)">
      <path
         d="m 238.0565,168.71693 v 53.34896 h 30.09942 q 3.59993,0 5.49989,1.74997 1.94996,1.74997 1.94996,4.39991 0,2.69995 -1.89996,4.39992 -1.89997,1.64997 -5.54989,1.64997 h -35.8493 q -4.84991,0 -6.99987,-2.14996 -2.09996,-2.14996 -2.09996,-6.94987 v -56.4489 q 0,-4.49991 1.99996,-6.74986 2.04996,-2.24996 5.3499,-2.24996 3.34993,0 5.39989,2.24996 2.09996,2.19995 2.09996,6.74986 z"
         style="font-family:'Arial Rounded MT Bold';-inkscape-font-specification:'Arial Rounded MT Bold, ';fill:#aa0000"
         id="path57112" />
      <path
         d="m 312.50505,159.71711 q 11.39978,0 19.54962,4.64991 8.19984,4.59991 12.39976,13.14974 4.19992,8.49984 4.19992,19.99961 0,8.49984 -2.29996,15.4497 -2.29995,6.94987 -6.89986,12.04977 -4.59991,5.0999 -11.29978,7.79984 -6.69987,2.69995 -15.3497,2.69995 -8.59984,0 -15.3997,-2.74995 -6.79987,-2.79994 -11.34978,-7.84984 -4.54991,-5.0499 -6.89987,-12.14977 -2.29995,-7.09986 -2.29995,-15.3497 0,-8.44983 2.39995,-15.49969 2.44995,-7.04987 7.04986,-11.99977 4.59991,-4.9499 11.19978,-7.54985 6.59988,-2.64995 14.99971,-2.64995 z m 21.09959,37.69926 q 0,-8.04984 -2.59995,-13.94972 -2.59995,-5.89989 -7.44985,-8.89983 -4.79991,-3.04994 -11.04979,-3.04994 -4.44991,0 -8.24984,1.69997 -3.74992,1.64996 -6.49987,4.8499 -2.69995,3.19994 -4.29992,8.19984 -1.54997,4.94991 -1.54997,11.14978 0,6.24988 1.54997,11.29978 1.59997,5.04991 4.44992,8.39984 2.89994,3.29994 6.59987,4.9499 3.74992,1.64997 8.19984,1.64997 5.69989,0 10.44979,-2.84994 4.79991,-2.84995 7.59986,-8.79983 2.84994,-5.94989 2.84994,-14.64972 z"
         style="font-family:'Arial Rounded MT Bold';-inkscape-font-specification:'Arial Rounded MT Bold, ';fill:#aa0000"
         id="path57114" />
      <path
         d="m 428.3028,204.46624 v 14.04972 q 0,2.79995 -0.54999,4.49991 -0.54999,1.64997 -2.04996,2.99995 -1.44997,1.34997 -3.74992,2.59995 -6.64988,3.59993 -12.79976,5.24989 -6.14988,1.64997 -13.39973,1.64997 -8.44984,0 -15.3997,-2.59995 -6.94987,-2.59995 -11.84977,-7.54985 -4.89991,-4.9499 -7.54985,-11.99977 -2.59995,-7.04986 -2.59995,-15.74969 0,-8.54983 2.54995,-15.64969 2.54995,-7.09987 7.49985,-12.04977 4.9499,-4.9499 12.04976,-7.54985 7.09987,-2.64995 16.09969,-2.64995 7.39986,0 13.09975,1.99996 5.69988,1.94996 9.24981,4.9499 3.54994,2.99995 5.3499,6.34988 1.79997,3.34993 1.79997,5.94988 0,2.79995 -2.09996,4.79991 -2.04996,1.94996 -4.94991,1.94996 -1.59997,0 -3.09994,-0.74998 -1.44997,-0.74999 -2.44995,-2.09996 -2.74995,-4.29992 -4.64991,-6.49988 -1.89996,-2.19995 -5.1499,-3.69992 -3.19994,-1.49997 -8.19984,-1.49997 -5.1499,0 -9.19982,1.79996 -4.04992,1.74997 -6.94986,5.1499 -2.84995,3.34994 -4.39992,8.24984 -1.49997,4.8999 -1.49997,10.84979 0,12.89975 5.89989,19.84961 5.94988,6.94987 16.54967,6.94987 5.1499,0 9.64982,-1.34998 4.54991,-1.34997 9.19982,-3.84992 v -11.89977 h -11.49978 q -4.14992,0 -6.29988,-1.24998 -2.09996,-1.24997 -2.09996,-4.24991 0,-2.44996 1.74997,-4.04992 1.79997,-1.59997 4.84991,-1.59997 H 418.253 q 3.09994,0 5.24989,0.54999 2.14996,0.54999 3.44994,2.44995 1.34997,1.89996 1.34997,5.69989 z"
         style="font-family:'Arial Rounded MT Bold';-inkscape-font-specification:'Arial Rounded MT Bold, ';fill:#aa0000"
         id="path57116" />
      <path
         d="m 443.05251,226.46581 v -57.74888 q 0,-4.49991 2.04996,-6.74986 2.04996,-2.24996 5.2999,-2.24996 3.34994,0 5.3999,2.24996 2.09996,2.19995 2.09996,6.74986 v 57.74888 q 0,4.54991 -2.09996,6.79987 -2.04996,2.24995 -5.3999,2.24995 -3.19994,0 -5.2999,-2.24995 -2.04996,-2.29996 -2.04996,-6.79987 z"
         style="font-family:'Arial Rounded MT Bold';-inkscape-font-specification:'Arial Rounded MT Bold, ';fill:#aa0000"
         id="path57118" />
      <path
         d="m 493.85151,168.61694 28.54944,43.19915 v -43.59915 q 0,-4.24991 1.79997,-6.34987 1.84996,-2.14996 4.9499,-2.14996 3.19994,0 5.0499,2.14996 1.84997,2.09996 1.84997,6.34987 v 57.64888 q 0,9.64981 -7.99985,9.64981 -1.99996,0 -3.59993,-0.59999 -1.59996,-0.54999 -2.99994,-1.79996 -1.39997,-1.24998 -2.59995,-2.89995 -1.19997,-1.69996 -2.39995,-3.44993 l -27.84946,-42.69917 v 42.94917 q 0,4.19992 -1.94996,6.34987 -1.94996,2.14996 -4.9999,2.14996 -3.14994,0 -5.0499,-2.14996 -1.89997,-2.19995 -1.89997,-6.34987 v -56.5489 q 0,-3.59993 0.79999,-5.64989 0.94998,-2.24996 3.14994,-3.64993 2.19995,-1.44997 4.74991,-1.44997 1.99996,0 3.39993,0.64999 1.44997,0.64998 2.49995,1.74996 1.09998,1.09998 2.19996,2.84995 1.14997,1.74996 2.34995,3.64993 z"
         style="font-family:'Arial Rounded MT Bold';-inkscape-font-specification:'Arial Rounded MT Bold, ';fill:#aa0000"
         id="path57120" />
    </g>
    <path
       id="bde08021-c30f-4979-a9d8-cb90b72b5ca2-240-0"
       data-name="Path 2"
       d="m 427.97998,107.90677 0.43508,5.17528 a 61.461109,65.399058 0 0 0 6.0677,3.55741 l 0.49806,-2.28566 0.22282,2.64983 c 2.58903,1.28771 4.38016,1.96595 4.38016,1.96595 0,0 -0.97221,-10.51478 -5.03885,-19.12111 l -5.92211,-2.179371 4.84439,0.0816 a 24.866738,26.460004 0 0 0 -1.75761,-2.749382 c -6.47485,-8.812957 -14.42877,-13.70714 -17.76542,-10.931474 -3.33665,2.77568 -0.79282,12.170143 5.68204,20.983097 2.00721,2.7321 4.68824,5.10719 7.43202,7.08489 z"
       fill="#f2f2f2"
       style="stroke-width:0.188723" />
    <path
       id="bde08021-c30f-4979-a9d8-cb90b72b5ca2-240-0-7"
       data-name="Path 2"
       d="m 390.08118,32.225678 -1.55171,4.914012 a 61.699485,80.091344 78.599561 0 0 5.96979,4.747999 l 1.5272,-2.006324 -0.79445,2.516072 c 2.63988,1.811939 4.55175,2.867823 4.55175,2.867823 0,0 3.045,-10.004887 1.54764,-18.970799 l -6.34671,-3.432472 5.87622,1.226523 A 24.963184,32.404402 78.599561 0 0 399.8233,21.115347 C 395.47157,11.385374 387.73895,4.9467496 382.55214,6.7343326 c -5.18681,1.787585 -5.86402,11.1243954 -1.5123,20.8543684 1.34899,3.016394 3.66356,5.860953 6.21457,8.351031 z"
       fill="#f2f2f2"
       style="stroke-width:0.209253" />
    <path
       id="bde08021-c30f-4979-a9d8-cb90b72b5ca2-240-0-6"
       data-name="Path 2"
       d="m 281.96788,139.10819 -0.43509,5.2367 a 58.814673,68.341764 30.83652 0 1 -6.0677,4.41385 l -0.49807,-2.21535 -0.22282,2.68128 c -2.58901,1.65315 -4.38015,2.58421 -4.38015,2.58421 0,0 0.97222,-10.652 5.03885,-19.83234 l 5.9221,-3.01529 -4.84438,0.7654 a 23.796009,27.650603 30.836516 0 1 1.75761,-2.99747 c 6.47486,-9.72687 14.42877,-15.74373 17.76543,-13.43902 3.33664,2.30472 0.79281,12.05822 -5.68206,21.7851 -2.0072,3.01542 -4.68822,5.76893 -7.43201,8.13391 z"
       fill="#f2f2f2"
       style="stroke-width:0.188723" />
    <g
       aria-label="Super One "
       id="text3590-8"
       style="font-size:11.5846px;line-height:1.25;font-family:'Oh Chewy';-inkscape-font-specification:'Oh Chewy';stroke-width:0.372363"
       transform="matrix(2.0787881,0,0,2.0787881,3.0998466,-227.07693)">
      <path
         d="m 5.8130627,165.9996 q 0,0.75232 -0.3903015,1.35191 -0.384645,0.5996 -1.1313087,0.93899 -0.7466637,0.33939 -1.770498,0.33939 -1.2274699,0 -2.02504245,-0.46383 -0.56565431,-0.33374 -0.92201654,-0.88808 -0.35070567,-0.56 -0.35070567,-1.08606 0,-0.30545 0.2092921,-0.5204 0.21494864,-0.2206 0.54302814,-0.2206 0.26585753,0 0.44686691,0.16969 0.18666593,0.1697 0.31676642,0.50343 0.15838321,0.39596 0.33939259,0.66182 0.1866659,0.26586 0.520402,0.44121 0.333736,0.1697 0.8767642,0.1697 0.7466637,0 1.2105002,-0.34505 0.4694931,-0.35071 0.4694931,-0.87111 0,-0.41293 -0.2545444,-0.66747 -0.2488879,-0.2602 -0.6505025,-0.39596 -0.395958,-0.13576 -1.0634301,-0.28848 -0.8937339,-0.2093 -1.49898398,-0.48647 -0.59959357,-0.28282 -0.9559558,-0.76363 -0.35070567,-0.48646 -0.35070567,-1.20484 0,-0.68445 0.37333185,-1.21616 0.37333185,-0.53172 1.08039975,-0.81454 0.70706785,-0.28849 1.66302365,-0.28849 0.7636334,0 1.3179746,0.19233 0.5599978,0.18666 0.9276731,0.50343 0.3676753,0.31111 0.5373716,0.65616 0.1696963,0.34505 0.1696963,0.67313 0,0.29979 -0.2149487,0.54302 -0.2092921,0.23758 -0.5260585,0.23758 -0.2884837,0 -0.4412103,-0.14141 -0.1470702,-0.14707 -0.322423,-0.47515 -0.2262617,-0.4695 -0.5430281,-0.7297 -0.3167665,-0.26586 -1.0181778,-0.26586 -0.6505025,0 -1.0521171,0.28849 -0.39595798,0.28283 -0.39595798,0.68444 0,0.24889 0.13575708,0.4299 0.135757,0.18101 0.3733318,0.31111 0.2375748,0.1301 0.4808062,0.20363 0.2432313,0.0735 0.8032291,0.21495 0.7014114,0.16404 1.2670657,0.36202 0.5713108,0.19798 0.9672689,0.48081 0.4016145,0.28282 0.6222197,0.71838 0.2262618,0.42989 0.2262618,1.05777 z"
         style="font-family:'Arial Rounded MT Bold';-inkscape-font-specification:'Arial Rounded MT Bold, ';fill:#aa0000"
         id="path27186" />
      <path
         d="m 11.141526,167.75879 v -0.19798 q -0.27717,0.3507 -0.582623,0.58828 -0.305454,0.23757 -0.6674726,0.3507 -0.3620188,0.11879 -0.8258553,0.11879 -0.5599978,0 -1.0068647,-0.23192 Q 7.6175,168.15474 7.3742687,167.74747 7.085785,167.25535 7.085785,166.33334 v -3.06019 q 0,-0.46384 0.2092921,-0.6901 0.2092921,-0.23192 0.5543412,-0.23192 0.3507057,0 0.5656543,0.23192 0.2149487,0.23192 0.2149487,0.6901 v 2.47191 q 0,0.53737 0.090505,0.90504 0.090505,0.36202 0.3224229,0.57131 0.2375748,0.20364 0.6391894,0.20364 0.3903014,0 0.7353504,-0.23192 0.345049,-0.23192 0.503432,-0.60525 0.130101,-0.32808 0.130101,-1.43676 v -1.87797 q 0,-0.45818 0.214948,-0.6901 0.214949,-0.23192 0.559998,-0.23192 0.345049,0 0.554341,0.23192 0.209293,0.22626 0.209293,0.6901 v 4.47432 q 0,0.44121 -0.203636,0.66182 -0.197979,0.2206 -0.514745,0.2206 -0.316767,0 -0.526059,-0.22626 -0.203636,-0.23192 -0.203636,-0.64484 z"
         style="font-family:'Arial Rounded MT Bold';-inkscape-font-specification:'Arial Rounded MT Bold, ';fill:#aa0000"
         id="path27188" />
      <path
         d="m 15.55363,163.21658 v 0.18667 q 0.435554,-0.53737 0.905047,-0.78626 0.469493,-0.25455 1.06343,-0.25455 0.712724,0 1.312318,0.36768 0.599594,0.36767 0.944643,1.07474 0.350705,0.70707 0.350705,1.67434 0,0.71272 -0.203635,1.31232 -0.197979,0.59393 -0.548685,1.0012 -0.350706,0.40162 -0.831512,0.62222 -0.475149,0.21495 -1.023834,0.21495 -0.661816,0 -1.114339,-0.26585 -0.446867,-0.26586 -0.854138,-0.78061 v 2.31919 q 0,1.01817 -0.741007,1.01817 -0.435554,0 -0.576968,-0.26585 -0.141413,-0.26021 -0.141413,-0.76364 v -6.66341 q 0,-0.44121 0.192322,-0.65615 0.192323,-0.22061 0.526059,-0.22061 0.328079,0 0.531715,0.22626 0.209292,0.22061 0.209292,0.63919 z m 3.026251,2.24565 q 0,-0.61091 -0.186666,-1.04646 -0.186666,-0.44121 -0.520402,-0.67313 -0.32808,-0.23757 -0.729694,-0.23757 -0.63919,0 -1.0804,0.50343 -0.435554,0.50343 -0.435554,1.48201 0,0.92202 0.435554,1.43676 0.435554,0.50909 1.0804,0.50909 0.384645,0 0.712724,-0.2206 0.32808,-0.22626 0.526059,-0.67313 0.197979,-0.44687 0.197979,-1.0804 z"
         style="font-family:'Arial Rounded MT Bold';-inkscape-font-specification:'Arial Rounded MT Bold, ';fill:#aa0000"
         id="path27190" />
      <path
         d="m 25.678843,165.8695 h -3.020595 q 0.0057,0.52606 0.209293,0.92767 0.209292,0.40162 0.548684,0.60525 0.345049,0.20364 0.757977,0.20364 0.277171,0 0.503432,-0.0622 0.231919,-0.0679 0.446867,-0.20364 0.214949,-0.14141 0.395958,-0.2998 0.18101,-0.15838 0.469493,-0.42989 0.118788,-0.10182 0.339393,-0.10182 0.237575,0 0.384645,0.1301 0.14707,0.1301 0.14707,0.36768 0,0.20929 -0.16404,0.49211 -0.164039,0.27718 -0.497776,0.53738 -0.328079,0.25454 -0.831511,0.42424 -0.497776,0.16969 -1.148279,0.16969 -1.48767,0 -2.313526,-0.84848 -0.825855,-0.84848 -0.825855,-2.30221 0,-0.68444 0.203635,-1.26707 0.203636,-0.58828 0.593937,-1.00686 0.390302,-0.41859 0.961613,-0.63919 0.571311,-0.22626 1.267065,-0.22626 0.905047,0 1.549893,0.38464 0.650503,0.37899 0.972926,0.98424 0.322423,0.60525 0.322423,1.23313 0,0.58262 -0.333736,0.75797 -0.333736,0.1697 -0.938986,0.1697 z m -3.020595,-0.87676 h 2.799989 q -0.05656,-0.79192 -0.429897,-1.18222 -0.367675,-0.39596 -0.972925,-0.39596 -0.576968,0 -0.9503,0.40161 -0.367675,0.39596 -0.446867,1.17657 z"
         style="font-family:'Arial Rounded MT Bold';-inkscape-font-specification:'Arial Rounded MT Bold, ';fill:#aa0000"
         id="path27192" />
      <path
         d="m 29.785492,166.40122 v 1.28969 q 0,0.46949 -0.220605,0.70706 -0.220605,0.23192 -0.559998,0.23192 -0.333736,0 -0.548685,-0.23757 -0.214948,-0.23758 -0.214948,-0.70141 v -4.29898 q 0,-1.0408 0.75232,-1.0408 0.384645,0 0.554341,0.24323 0.169697,0.24323 0.186666,0.71838 0.277171,-0.47515 0.565654,-0.71838 0.294141,-0.24323 0.780603,-0.24323 0.486463,0 0.944643,0.24323 0.45818,0.24323 0.45818,0.64485 0,0.28282 -0.197979,0.46949 -0.192322,0.18101 -0.418584,0.18101 -0.08485,0 -0.412928,-0.10182 -0.322423,-0.10747 -0.571311,-0.10747 -0.339392,0 -0.554341,0.18101 -0.214948,0.17535 -0.333736,0.52606 -0.118787,0.3507 -0.16404,0.83716 -0.04525,0.48081 -0.04525,1.17657 z"
         style="font-family:'Arial Rounded MT Bold';-inkscape-font-specification:'Arial Rounded MT Bold, ';fill:#aa0000"
         id="path27194" />
      <path
         d="m 39.978583,160.05457 q 1.289692,0 2.211709,0.52606 0.927673,0.5204 1.402822,1.48767 0.47515,0.96162 0.47515,2.26262 0,0.96161 -0.260201,1.74787 -0.260201,0.78626 -0.780603,1.36323 -0.520402,0.57697 -1.278379,0.88242 -0.757976,0.30545 -1.736558,0.30545 -0.972926,0 -1.742216,-0.31111 -0.76929,-0.31676 -1.284035,-0.88807 -0.514745,-0.57131 -0.780603,-1.37454 -0.260201,-0.80323 -0.260201,-1.73656 0,-0.95596 0.271514,-1.75353 0.277171,-0.79757 0.797573,-1.35757 0.520402,-0.56 1.267065,-0.85414 0.746664,-0.2998 1.696963,-0.2998 z m 2.387062,4.26504 q 0,-0.91071 -0.294141,-1.57818 -0.29414,-0.66747 -0.842825,-1.00686 -0.543028,-0.34505 -1.250096,-0.34505 -0.503432,0 -0.933329,0.19232 -0.424241,0.18667 -0.735351,0.54869 -0.305453,0.36201 -0.486463,0.92767 -0.175352,0.56 -0.175352,1.26141 0,0.70707 0.175352,1.27838 0.18101,0.57131 0.503433,0.9503 0.328079,0.37333 0.746663,0.55999 0.424241,0.18667 0.927674,0.18667 0.644845,0 1.182217,-0.32242 0.543028,-0.32243 0.859795,-0.99556 0.322423,-0.67312 0.322423,-1.65736 z"
         style="font-family:'Arial Rounded MT Bold';-inkscape-font-specification:'Arial Rounded MT Bold, ';fill:#aa0000"
         id="path27196" />
      <path
         d="m 46.800377,163.20527 v 0.18666 q 0.407271,-0.53737 0.888077,-0.78626 0.486463,-0.25454 1.114339,-0.25454 0.610907,0 1.091713,0.26586 0.480806,0.26586 0.718381,0.75232 0.152727,0.28283 0.197979,0.6109 0.04525,0.32808 0.04525,0.83717 v 2.87353 q 0,0.46383 -0.214948,0.70141 -0.209293,0.23757 -0.548685,0.23757 -0.345049,0 -0.559998,-0.24323 -0.214949,-0.24323 -0.214949,-0.69575 v -2.57373 q 0,-0.76363 -0.214948,-1.16525 -0.209292,-0.40727 -0.842825,-0.40727 -0.412928,0 -0.75232,0.24889 -0.339393,0.24323 -0.497776,0.67313 -0.113131,0.34505 -0.113131,1.28969 v 1.93454 q 0,0.46949 -0.220605,0.70706 -0.214949,0.23192 -0.559998,0.23192 -0.333736,0 -0.548685,-0.24323 -0.214948,-0.24323 -0.214948,-0.69575 v -4.46302 q 0,-0.44121 0.192322,-0.65615 0.192323,-0.22061 0.526059,-0.22061 0.203635,0 0.367675,0.0962 0.16404,0.0962 0.260201,0.28849 0.101818,0.19232 0.101818,0.46949 z"
         style="font-family:'Arial Rounded MT Bold';-inkscape-font-specification:'Arial Rounded MT Bold, ';fill:#aa0000"
         id="path27198" />
      <path
         d="m 56.704983,165.8695 h -3.020594 q 0.0057,0.52606 0.209292,0.92767 0.209292,0.40162 0.548684,0.60525 0.34505,0.20364 0.757977,0.20364 0.277171,0 0.503433,-0.0622 0.231918,-0.0679 0.446866,-0.20364 0.214949,-0.14141 0.395959,-0.2998 0.181009,-0.15838 0.469493,-0.42989 0.118787,-0.10182 0.339392,-0.10182 0.237575,0 0.384645,0.1301 0.14707,0.1301 0.14707,0.36768 0,0.20929 -0.16404,0.49211 -0.164039,0.27718 -0.497775,0.53738 -0.32808,0.25454 -0.831512,0.42424 -0.497776,0.16969 -1.148278,0.16969 -1.487671,0 -2.313527,-0.84848 -0.825855,-0.84848 -0.825855,-2.30221 0,-0.68444 0.203636,-1.26707 0.203635,-0.58828 0.593937,-1.00686 0.390301,-0.41859 0.961612,-0.63919 0.571311,-0.22626 1.267066,-0.22626 0.905047,0 1.549893,0.38464 0.650502,0.37899 0.972925,0.98424 0.322423,0.60525 0.322423,1.23313 0,0.58262 -0.333736,0.75797 -0.333736,0.1697 -0.938986,0.1697 z m -3.020594,-0.87676 h 2.799989 q -0.05657,-0.79192 -0.429898,-1.18222 -0.367675,-0.39596 -0.972925,-0.39596 -0.576968,0 -0.950299,0.40161 -0.367676,0.39596 -0.446867,1.17657 z"
         style="font-family:'Arial Rounded MT Bold';-inkscape-font-specification:'Arial Rounded MT Bold, ';fill:#aa0000"
         id="path27200" />
    </g>
    <g
       aria-label="Accessories "
       id="text9891"
       style="font-size:11.5846px;font-family:'Oh Chewy';-inkscape-font-specification:'Oh Chewy';fill:#ffffff;stroke:#9a1300;stroke-width:0.5"
       transform="matrix(1.2507973,0,0,1.2507973,243.00525,63.71706)">
      <g
         id="path24457"
         transform="matrix(1.6619704,0,0,1.6619704,-335.38893,20.29967)">
        <path
           style="color:#000000;-inkscape-font-specification:'Arial Rounded MT Bold, ';stroke:none;-inkscape-stroke:none"
           d="m 155.95989,15.249427 -0.39596,-1.040803 h -3.3713 l -0.39595,1.06343 q -0.23192,0.622219 -0.39596,0.842825 -0.16404,0.214948 -0.53737,0.214948 -0.31677,0 -0.56,-0.231918 -0.24323,-0.231918 -0.24323,-0.526059 0,-0.169696 0.0566,-0.350705 0.0566,-0.18101 0.18667,-0.503433 l 2.1212,-5.3850287 q 0.0905,-0.2319183 0.21495,-0.5543413 0.1301,-0.3280795 0.27152,-0.5430281 0.14707,-0.2149486 0.37898,-0.3450491 0.23758,-0.1357571 0.58263,-0.1357571 0.3507,0 0.58262,0.1357571 0.23758,0.1301005 0.37899,0.3393926 0.14707,0.2092921 0.24323,0.4525234 0.10182,0.2375748 0.25455,0.6391894 l 2.16645,5.3510898 q 0.25455,0.610907 0.25455,0.888077 0,0.288484 -0.24323,0.531715 -0.23758,0.237575 -0.57697,0.237575 -0.19798,0 -0.33939,-0.07354 -0.14142,-0.06788 -0.23758,-0.186666 -0.0962,-0.124444 -0.20929,-0.373332 -0.10748,-0.254544 -0.18667,-0.446867 z m -3.32604,-2.302213 h 2.47756 l -1.25009,-3.4222083 z"
           id="path24500" />
        <path
           style="color:#000000;-inkscape-font-specification:'Arial Rounded MT Bold, ';fill:#9a1300;stroke:none;-inkscape-stroke:none"
           d="m 153.87305,7.5039062 c -0.26282,0 -0.50338,0.053551 -0.70703,0.1699219 -0.18511,0.1043226 -0.34211,0.2462496 -0.46094,0.4199219 l -0.002,0.00195 v 0.00195 c -0.10703,0.1626817 -0.20559,0.3577082 -0.29687,0.5878906 V 8.6875 c -0.0829,0.2147421 -0.15467,0.4004726 -0.21484,0.5546875 l -2.1211,5.3847655 c -0.0875,0.216929 -0.1502,0.387747 -0.1914,0.519531 -0.0444,0.141912 -0.0684,0.284856 -0.0684,0.425782 0,0.265003 0.11995,0.515993 0.32031,0.707031 0.20138,0.192016 0.46023,0.300781 0.73242,0.300781 0.29687,0 0.57148,-0.09844 0.73633,-0.314453 l 0.002,-0.002 c 0.14286,-0.192114 0.27172,-0.48047 0.42969,-0.904297 l 0.33594,-0.900391 h 3.02343 l 0.3379,0.884766 c 0.001,0.0033 0.003,0.0084 0.004,0.01172 l 0.0645,0.166015 h 0.006 c 0.0366,0.08784 0.0699,0.168622 0.11329,0.271485 l 0.002,0.0039 0.002,0.002 c 0.0799,0.175945 0.15382,0.314565 0.23828,0.423828 l 0.002,0.002 0.002,0.002 c 0.0857,0.105838 0.19341,0.191791 0.31641,0.251954 5.5e-4,2.9e-4 0.001,-2.9e-4 0.002,0 0.13623,0.07044 0.29085,0.101562 0.45312,0.101562 0.2846,0 0.55343,-0.110076 0.75391,-0.310547 0.1971,-0.197098 0.31641,-0.446401 0.31641,-0.708984 0,-0.261312 -0.10053,-0.564713 -0.27539,-0.984375 l -2.16211,-5.3437501 -0.002,-0.00391 c -0.10171,-0.2673348 -0.1881,-0.4818854 -0.25781,-0.6445312 -0.0702,-0.1760339 -0.15858,-0.3412146 -0.26562,-0.4941406 -0.11718,-0.1734317 -0.27525,-0.314146 -0.46485,-0.4179688 -0.20097,-0.116148 -0.43931,-0.1679688 -0.70312,-0.1679688 z m 0,0.5000001 c 0.20154,0 0.34787,0.038811 0.45507,0.1015625 l 0.004,0.00195 0.004,0.00195 c 0.12718,0.069644 0.21965,0.1541414 0.29101,0.2597656 l 0.002,0.00195 v 0.00195 c 0.0866,0.1232239 0.15969,0.2559618 0.21679,0.4003906 v 0.00391 l 0.002,0.00391 c 0.0656,0.1531005 0.14892,0.3631074 0.25,0.6289063 l 0.002,0.00195 2.16797,5.3554687 v 0.002 c 0.16454,0.39488 0.23633,0.682768 0.23633,0.791016 0,0.122061 -0.0427,0.228259 -0.16993,0.355469 -0.11629,0.116295 -0.23246,0.164062 -0.40039,0.164062 -0.10103,0 -0.1727,-0.01793 -0.22461,-0.04492 l -0.004,-0.002 -0.004,-0.002 c -0.0629,-0.0302 -0.10934,-0.06843 -0.15039,-0.119141 -0.043,-0.05631 -0.10519,-0.162449 -0.17383,-0.3125 l -0.002,-0.0059 c -0.0694,-0.16434 -0.13033,-0.309021 -0.18164,-0.433594 l -0.002,-0.0059 -0.004,-0.0098 -0.45117,-1.185547 h -3.7168 l -0.45703,1.226563 c -0.1508,0.404572 -0.28533,0.674594 -0.36133,0.777344 -2.8e-4,3.64e-4 -0.002,-3.63e-4 -0.002,0 -1.6e-4,2.11e-4 1.5e-4,0.0017 0,0.002 -0.0539,0.06976 -0.13643,0.115234 -0.33594,0.115234 -0.15017,0 -0.26379,-0.04686 -0.38672,-0.164062 -0.12395,-0.118186 -0.16601,-0.216566 -0.16601,-0.34375 0,-0.08534 0.0138,-0.177911 0.0449,-0.277344 0.0341,-0.108965 0.0943,-0.272812 0.17969,-0.484375 l 2.12304,-5.386719 c 0.0602,-0.1543507 0.1303,-0.3387482 0.21289,-0.5527343 l 0.002,-0.00195 c 0.0812,-0.2042762 0.16359,-0.3691658 0.24414,-0.4921875 0.0767,-0.112157 0.17188,-0.2005085 0.29492,-0.2695312 h 0.002 c 0.11312,-0.064639 0.26174,-0.1035157 0.45899,-0.1035156 z m -0.0137,0.7871093 -1.58007,4.4062504 h 0.35547 2.83398 z m 0.004,1.4667974 0.89063,2.439453 h -1.76563 z"
           id="path24502" />
      </g>
      <g
         id="path24459"
         transform="matrix(1.6619704,0,0,1.6619704,-335.38893,20.29967)">
        <path
           style="color:#000000;-inkscape-font-specification:'Arial Rounded MT Bold, ';stroke:none;-inkscape-stroke:none"
           d="m 164.41643,14.417916 q 0,0.288483 -0.17536,0.616563 -0.16969,0.328079 -0.52606,0.627876 -0.3507,0.29414 -0.88807,0.47515 -0.53738,0.181009 -1.2105,0.181009 -1.43111,0 -2.23434,-0.831512 -0.80323,-0.837168 -0.80323,-2.239991 0,-0.950299 0.36768,-1.679993 0.36767,-0.729694 1.06343,-1.125652 0.69575,-0.401615 1.66302,-0.401615 0.5996,0 1.09737,0.175353 0.50343,0.175353 0.84848,0.452523 0.35071,0.277171 0.53172,0.593938 0.18666,0.311109 0.18666,0.582623 0,0.277171 -0.20929,0.469494 -0.20363,0.192322 -0.49777,0.192322 -0.19233,0 -0.32243,-0.09616 -0.12444,-0.101818 -0.28282,-0.322423 -0.28283,-0.429897 -0.59394,-0.644846 -0.30545,-0.214949 -0.7806,-0.214949 -0.68445,0 -1.10303,0.537372 -0.41858,0.531715 -0.41858,1.459388 0,0.435554 0.10747,0.803229 0.10747,0.362019 0.31111,0.62222 0.20364,0.254544 0.49212,0.390301 0.28848,0.130101 0.63353,0.130101 0.46384,0 0.79192,-0.214949 0.33373,-0.214948 0.58828,-0.656159 0.14141,-0.260201 0.30545,-0.407271 0.16404,-0.14707 0.40162,-0.14707 0.28282,0 0.46949,0.214949 0.18667,0.214948 0.18667,0.45818 z"
           id="path24508" />
        <path
           style="color:#000000;-inkscape-font-specification:'Arial Rounded MT Bold, ';fill:#9a1300;stroke:none;-inkscape-stroke:none"
           d="m 161.67383,9.7890625 c -0.67875,0 -1.28016,0.1433383 -1.78711,0.4355465 -0.50476,0.287262 -0.89861,0.703643 -1.16406,1.230469 -0.26475,0.525409 -0.39454,1.125241 -0.39454,1.791016 0,0.982929 0.28927,1.805613 0.87305,2.414062 h 0.002 c 0.58704,0.607703 1.41158,0.908203 2.41407,0.908203 0.47115,0 0.90088,-0.06261 1.28906,-0.193359 0.38148,-0.128498 0.70613,-0.301216 0.96875,-0.521484 0.25581,-0.2152 0.45427,-0.447993 0.58594,-0.701172 v -0.002 c 0.13066,-0.244982 0.20508,-0.490044 0.20508,-0.732422 0,-0.226109 -0.093,-0.444501 -0.24805,-0.623047 -0.16543,-0.190493 -0.40632,-0.300781 -0.6582,-0.300781 -0.20998,0 -0.41434,0.07285 -0.56836,0.210937 -0.13734,0.12313 -0.25322,0.28287 -0.35743,0.47461 l 0.002,-0.0059 c -0.15485,0.268399 -0.32451,0.453511 -0.50586,0.570313 l -0.002,0.002 c -0.17354,0.113701 -0.38368,0.173828 -0.65429,0.173828 -0.19707,0 -0.37007,-0.03518 -0.52735,-0.105469 l -0.004,-0.002 c -0.15661,-0.07439 -0.288,-0.177875 -0.40039,-0.318359 -0.11353,-0.145602 -0.20187,-0.322335 -0.26563,-0.53711 -0.0642,-0.2196 -0.0977,-0.462614 -0.0977,-0.732422 0,-0.580846 0.12989,-1.005734 0.36523,-1.304687 v -0.002 c 0.23846,-0.306133 0.51538,-0.439453 0.90625,-0.439453 0.27907,0 0.48298,0.05978 0.63672,0.167968 v 0.002 h 0.002 c 0.17243,0.119132 0.35141,0.308753 0.52735,0.576171 l 0.002,0.0039 0.004,0.0039 c 0.11305,0.157466 0.2169,0.280096 0.32812,0.371094 l 0.004,0.0039 0.004,0.0039 c 0.13409,0.09911 0.30278,0.144531 0.47266,0.144531 0.2497,0 0.48679,-0.08949 0.66601,-0.257812 l 0.002,-0.002 c 0.18237,-0.168585 0.28906,-0.405531 0.28906,-0.652344 0,-0.23692 -0.0813,-0.473436 -0.2207,-0.707031 l -0.002,-0.002 c -0.1391,-0.242643 -0.338,-0.462688 -0.58984,-0.66211 -0.25624,-0.205835 -0.56437,-0.369616 -0.92187,-0.4941404 -0.36152,-0.1273542 -0.75559,-0.1894531 -1.17969,-0.1894531 z m 0,0.5000005 c 0.37536,0 0.71149,0.05566 1.01367,0.162109 0.31374,0.109279 0.57157,0.248385 0.77539,0.412109 0.21387,0.169027 0.36895,0.343423 0.4707,0.521485 l 0.002,0.0039 v 0.002 c 0.10793,0.179893 0.15234,0.329406 0.15234,0.453125 0,0.121856 -0.0334,0.197427 -0.12891,0.285156 l -0.002,0.002 v 0.002 c -0.0921,0.08695 -0.18456,0.123046 -0.32617,0.123046 -0.0845,0 -0.13107,-0.01702 -0.16992,-0.04492 -0.0533,-0.04464 -0.13396,-0.134013 -0.22657,-0.261719 l -0.006,-0.0078 c -0.19891,-0.300557 -0.41517,-0.5374 -0.6543,-0.703125 -0.25353,-0.17841 -0.56936,-0.259765 -0.92383,-0.259765 -0.52109,0 -0.97923,0.223401 -1.29883,0.632812 -0.32276,0.409999 -0.47265,0.957232 -0.47265,1.613281 0,0.310931 0.0381,0.602415 0.11718,0.873047 v 0.002 c 0.0793,0.266979 0.19623,0.504106 0.35352,0.705079 h 0.002 v 0.002 c 0.15819,0.197733 0.35575,0.352497 0.58203,0.458984 l 0.002,0.002 h 0.002 c 0.22637,0.102091 0.47487,0.152344 0.73633,0.152344 0.34784,0 0.66384,-0.08296 0.92773,-0.255859 0.26267,-0.169778 0.48393,-0.421235 0.66797,-0.740235 l 0.002,-0.002 0.002,-0.0039 c 0.0843,-0.155195 0.17057,-0.26688 0.25195,-0.339844 0.0647,-0.058 0.12758,-0.08398 0.23438,-0.08398 0.12521,0 0.19778,0.0328 0.28125,0.128906 0.0938,0.108051 0.125,0.196722 0.125,0.294922 0,0.141666 -0.042,0.306193 -0.14454,0.498047 l -0.002,0.002 v 0.002 c -0.0946,0.182887 -0.24668,0.367253 -0.46484,0.550781 -0.20498,0.171918 -0.47163,0.31684 -0.80664,0.429688 -0.32833,0.110592 -0.70453,0.167968 -1.13086,0.167968 -0.90566,0 -1.57075,-0.25488 -2.05469,-0.755859 -0.48638,-0.507623 -0.73438,-1.179651 -0.73438,-2.066406 0,-0.60129 0.11631,-1.118891 0.3418,-1.566406 0.22478,-0.446099 0.53998,-0.780803 0.96289,-1.021485 h 0.002 c 0.42039,-0.242666 0.92881,-0.36914 1.53906,-0.36914 z"
           id="path24510" />
      </g>
      <g
         id="path24461"
         transform="matrix(1.6619704,0,0,1.6619704,-335.38893,20.29967)">
        <path
           style="color:#000000;-inkscape-font-specification:'Arial Rounded MT Bold, ';stroke:none;-inkscape-stroke:none"
           d="m 171.30044,14.417916 q 0,0.288483 -0.17535,0.616563 -0.1697,0.328079 -0.52606,0.627876 -0.35071,0.29414 -0.88808,0.47515 -0.53737,0.181009 -1.2105,0.181009 -1.43111,0 -2.23434,-0.831512 -0.80322,-0.837168 -0.80322,-2.239991 0,-0.950299 0.36767,-1.679993 0.36768,-0.729694 1.06343,-1.125652 0.69576,-0.401615 1.66302,-0.401615 0.5996,0 1.09737,0.175353 0.50344,0.175353 0.84849,0.452523 0.3507,0.277171 0.53171,0.593938 0.18667,0.311109 0.18667,0.582623 0,0.277171 -0.2093,0.469494 -0.20363,0.192322 -0.49777,0.192322 -0.19232,0 -0.32242,-0.09616 -0.12445,-0.101818 -0.28283,-0.322423 -0.28283,-0.429897 -0.59394,-0.644846 -0.30545,-0.214949 -0.7806,-0.214949 -0.68444,0 -1.10303,0.537372 -0.41858,0.531715 -0.41858,1.459388 0,0.435554 0.10747,0.803229 0.10748,0.362019 0.31111,0.62222 0.20364,0.254544 0.49212,0.390301 0.28849,0.130101 0.63353,0.130101 0.46384,0 0.79192,-0.214949 0.33374,-0.214948 0.58828,-0.656159 0.14141,-0.260201 0.30545,-0.407271 0.16404,-0.14707 0.40162,-0.14707 0.28283,0 0.46949,0.214949 0.18667,0.214948 0.18667,0.45818 z"
           id="path24516" />
        <path
           style="color:#000000;-inkscape-font-specification:'Arial Rounded MT Bold, ';fill:#9a1300;stroke:none;-inkscape-stroke:none"
           d="m 168.55664,9.7890625 c -0.67944,0 -1.27983,0.1427276 -1.78711,0.4355465 -0.50475,0.287262 -0.89665,0.703645 -1.16211,1.230469 -0.26474,0.525409 -0.39453,1.125242 -0.39453,1.791016 0,0.982929 0.28927,1.805613 0.87305,2.414062 0.58703,0.607703 1.41157,0.908203 2.41406,0.908203 0.47116,0 0.90284,-0.06261 1.29102,-0.193359 0.38147,-0.128498 0.70612,-0.301217 0.96875,-0.521484 0.2558,-0.2152 0.45426,-0.447998 0.58593,-0.701172 v -0.002 c 0.13065,-0.244981 0.20508,-0.490047 0.20508,-0.732422 0,-0.226109 -0.093,-0.444501 -0.24805,-0.623047 -0.16542,-0.190497 -0.40631,-0.300781 -0.6582,-0.300781 -0.20997,0 -0.41433,0.07285 -0.56836,0.210937 -0.13734,0.12313 -0.25517,0.28287 -0.35937,0.47461 -0.15372,0.264449 -0.32421,0.448718 -0.50391,0.564453 v 0.002 c -0.17354,0.113701 -0.38564,0.173828 -0.65625,0.173828 -0.19706,0 -0.37006,-0.03518 -0.52734,-0.105469 l -0.004,-0.002 c -0.1566,-0.07439 -0.28605,-0.177878 -0.39844,-0.318359 -0.11352,-0.145604 -0.20381,-0.322331 -0.26758,-0.53711 -0.0642,-0.2196 -0.0957,-0.462614 -0.0957,-0.732422 0,-0.580846 0.12794,-1.005734 0.36328,-1.304687 h 0.002 v -0.002 c 0.23846,-0.306135 0.51538,-0.439453 0.90625,-0.439453 0.27906,0 0.48298,0.05978 0.63671,0.167968 v 0.002 h 0.002 c 0.17243,0.119132 0.34945,0.308753 0.52539,0.576171 l 0.004,0.0039 0.002,0.0039 c 0.11305,0.157468 0.2169,0.280094 0.32812,0.371094 l 0.006,0.0039 0.004,0.0039 c 0.13408,0.09911 0.30082,0.144531 0.4707,0.144531 0.2497,0 0.48874,-0.08948 0.66797,-0.257812 l 0.002,-0.002 c 0.18238,-0.168583 0.28711,-0.405528 0.28711,-0.652344 0,-0.238302 -0.0817,-0.476018 -0.22265,-0.710937 -0.13905,-0.241745 -0.33684,-0.461355 -0.58789,-0.660157 -0.25583,-0.205497 -0.56511,-0.369693 -0.92188,-0.4941404 h -0.002 C 169.37565,9.8514563 168.98042,9.7889425 168.557,9.7889425 Z m 0,0.5000005 c 0.37536,0 0.71345,0.05566 1.01563,0.162109 0.31374,0.109279 0.56961,0.248386 0.77343,0.412109 h 0.002 c 0.21386,0.169027 0.36895,0.343421 0.4707,0.521485 v 0.0039 l 0.002,0.002 c 0.10794,0.179892 0.15039,0.329409 0.15039,0.453125 0,0.121853 -0.0315,0.197426 -0.12695,0.285156 l -0.002,0.002 -0.002,0.002 c -0.0921,0.08695 -0.18456,0.123046 -0.32617,0.123046 -0.0845,0 -0.13106,-0.01702 -0.16992,-0.04492 -0.0533,-0.04464 -0.13396,-0.134015 -0.22656,-0.261719 l -0.006,-0.0078 c -0.19891,-0.30055 -0.41321,-0.537403 -0.65235,-0.703125 -0.25352,-0.17841 -0.56936,-0.259765 -0.92382,-0.259765 -0.52172,0 -0.98113,0.222451 -1.30079,0.632812 -0.32276,0.409999 -0.4707,0.957232 -0.4707,1.613281 0,0.310931 0.0381,0.602415 0.11719,0.873047 v 0.002 c 0.0793,0.266975 0.19624,0.504108 0.35351,0.705079 l 0.002,0.002 c 0.15819,0.197733 0.35379,0.352497 0.58008,0.458984 l 0.002,0.002 h 0.002 c 0.22638,0.102089 0.47488,0.152344 0.73633,0.152344 0.34784,0 0.66579,-0.08296 0.92969,-0.255859 0.26267,-0.169778 0.48393,-0.421233 0.66797,-0.740235 l 0.002,-0.002 v -0.0039 c 0.0843,-0.155195 0.17252,-0.26688 0.25391,-0.339844 0.0647,-0.058 0.12757,-0.08398 0.23437,-0.08398 0.12522,0 0.1978,0.0328 0.28125,0.128906 0.0938,0.108051 0.125,0.196722 0.125,0.294922 0,0.141669 -0.0439,0.306192 -0.14648,0.498047 v 0.002 l -0.002,0.002 c -0.0946,0.182892 -0.24668,0.367253 -0.46484,0.550781 -0.20498,0.171919 -0.47162,0.316839 -0.80664,0.429688 -0.32832,0.110592 -0.70452,0.167968 -1.13086,0.167968 -0.90462,0 -1.56894,-0.254065 -2.05273,-0.753906 l -0.002,-0.002 c -0.48608,-0.507569 -0.73242,-1.179915 -0.73242,-2.066406 0,-0.601291 0.11631,-1.118891 0.3418,-1.566406 0.22478,-0.446101 0.53998,-0.780803 0.96289,-1.021485 h 0.002 c 0.4204,-0.242667 0.92687,-0.36914 1.53711,-0.36914 z"
           id="path24518" />
      </g>
      <g
         id="path24463"
         transform="matrix(1.6619704,0,0,1.6619704,-335.38893,20.29967)">
        <path
           style="color:#000000;-inkscape-font-specification:'Arial Rounded MT Bold, ';stroke:none;-inkscape-stroke:none"
           d="m 176.95698,13.569434 h -3.02059 q 0.006,0.526059 0.20929,0.927673 0.20929,0.401615 0.54868,0.60525 0.34505,0.203636 0.75798,0.203636 0.27717,0 0.50343,-0.06222 0.23192,-0.06788 0.44687,-0.203636 0.21495,-0.141413 0.39596,-0.299796 0.18101,-0.158384 0.46949,-0.429898 0.11879,-0.101817 0.33939,-0.101817 0.23758,0 0.38465,0.1301 0.14707,0.1301 0.14707,0.367675 0,0.209292 -0.16404,0.49212 -0.16404,0.27717 -0.49778,0.537371 -0.32808,0.254545 -0.83151,0.424241 -0.49777,0.169696 -1.14828,0.169696 -1.48767,0 -2.31352,-0.848481 -0.82586,-0.848482 -0.82586,-2.302213 0,-0.684442 0.20364,-1.267066 0.20363,-0.588281 0.59393,-1.006865 0.39031,-0.418584 0.96162,-0.639189 0.57131,-0.226262 1.26706,-0.226262 0.90505,0 1.5499,0.384645 0.6505,0.378989 0.97292,0.984239 0.32242,0.60525 0.32242,1.233126 0,0.582624 -0.33373,0.757977 -0.33374,0.169696 -0.93899,0.169696 z m -3.02059,-0.876764 h 2.79999 q -0.0566,-0.791916 -0.4299,-1.182218 -0.36768,-0.395958 -0.97293,-0.395958 -0.57696,0 -0.9503,0.401615 -0.36767,0.395958 -0.44686,1.176561 z"
           id="path24524" />
        <path
           style="color:#000000;-inkscape-font-specification:'Arial Rounded MT Bold, ';fill:#9a1300;stroke:none;-inkscape-stroke:none"
           d="m 175.38477,9.7890625 c -0.49094,0 -0.9462,0.080507 -1.35938,0.2441405 -0.41191,0.159308 -0.76634,0.394036 -1.05273,0.701172 -0.28525,0.30592 -0.50058,0.67418 -0.64649,1.095703 -0.14582,0.4172 -0.21875,0.868521 -0.21875,1.34961 0,1.016494 0.29809,1.85977 0.89844,2.476562 0.6029,0.61942 1.45288,0.923828 2.49219,0.923828 0.45541,0 0.86518,-0.05973 1.22851,-0.183594 0.3559,-0.119965 0.65791,-0.271724 0.9043,-0.46289 0.24077,-0.187721 0.42885,-0.3882 0.55859,-0.607422 l 0.002,-0.002 c 0.12278,-0.211703 0.19726,-0.412345 0.19726,-0.617188 0,-0.20997 -0.0759,-0.417917 -0.23047,-0.554687 -0.14808,-0.130998 -0.34676,-0.19336 -0.55078,-0.19336 -0.18553,0 -0.3647,0.04447 -0.50195,0.16211 l -0.004,0.0039 -0.004,0.0039 c -0.19099,0.179752 -0.34597,0.321518 -0.46289,0.423828 -0.1102,0.09642 -0.23268,0.187897 -0.36524,0.275391 -0.12359,0.07806 -0.25083,0.135351 -0.38086,0.173828 -0.12567,0.03456 -0.26947,0.05469 -0.43555,0.05469 -0.23419,0 -0.43841,-0.05635 -0.63085,-0.169922 -0.18186,-0.109422 -0.33186,-0.270789 -0.45313,-0.501953 v -0.002 c -4.9e-4,-9.45e-4 -0.001,-10e-4 -0.002,-0.002 -0.0791,-0.157349 -0.0978,-0.362586 -0.125,-0.560546 h 2.71484 c 0.42686,0 0.77582,-0.05646 1.05274,-0.197266 l 0.002,-0.002 c 0.32341,-0.169931 0.46875,-0.542367 0.46875,-0.978516 0,-0.461376 -0.1217,-0.916403 -0.35352,-1.351562 -0.23756,-0.445964 -0.59824,-0.809276 -1.0664,-1.082032 -0.47377,-0.2821607 -1.0377,-0.4199215 -1.67578,-0.4199215 z m 0,0.5000005 c 0.56795,0 1.03616,0.119539 1.42187,0.349609 v 0.002 h 0.002 c 0.39918,0.232562 0.68658,0.52373 0.87891,0.884766 0.19808,0.371839 0.29297,0.741396 0.29297,1.117187 0,0.340682 -0.0796,0.471283 -0.20117,0.535156 -0.1683,0.08481 -0.44388,0.142578 -0.82227,0.142579 h -3.27344 l 0.002,0.251953 c 0.004,0.382177 0.0814,0.731009 0.23632,1.037109 l 0.002,0.002 v 0.002 c 0.15712,0.3015 0.37358,0.541728 0.64258,0.703125 v 0.002 c 0.26762,0.157944 0.57033,0.238282 0.88671,0.238282 0.20349,0 0.39236,-0.02387 0.56836,-0.07227 h 0.002 0.002 c 0.17775,-0.05203 0.35,-0.130287 0.51172,-0.232422 l 0.002,-0.002 0.002,-0.002 c 0.15218,-0.10012 0.29204,-0.206711 0.42187,-0.320313 0.12229,-0.107006 0.2796,-0.24984 0.46875,-0.427734 0.0211,-0.01811 0.0672,-0.04102 0.17578,-0.04102 0.11275,0 0.17074,0.02394 0.21875,0.06641 0.0415,0.0367 0.0625,0.07484 0.0625,0.18164 0,0.07421 -0.033,0.199834 -0.1289,0.365235 -0.089,0.150035 -0.2318,0.307939 -0.43555,0.466797 -0.19105,0.148226 -0.44247,0.27847 -0.75781,0.384765 h -0.002 c -0.30036,0.102398 -0.65447,0.15625 -1.0664,0.15625 -0.94425,0 -1.63653,-0.26155 -2.13477,-0.773437 -0.5008,-0.514516 -0.75586,-1.205142 -0.75586,-2.126953 0,-0.431501 0.0638,-0.825916 0.18945,-1.185547 h 0.002 c 0.1256,-0.362851 0.30391,-0.665777 0.53906,-0.917969 0.23365,-0.25058 0.51999,-0.44135 0.86914,-0.576172 l 0.002,-0.002 c 0.34858,-0.138049 0.73905,-0.208984 1.17579,-0.208984 z m -0.0508,0.576171 c -0.44264,0 -0.84214,0.16569 -1.13476,0.480469 -0.29477,0.317443 -0.45543,0.767435 -0.51172,1.322266 l -0.0273,0.27539 h 0.27539 3.07031 l -0.0195,-0.267578 c -0.0403,-0.564013 -0.19712,-1.021216 -0.5,-1.33789 -0.29145,-0.311943 -0.69592,-0.472657 -1.15235,-0.472657 z m 0,0.5 c 0.34899,0 0.59049,0.100605 0.78907,0.314454 l 0.002,0.002 v 0.002 c 0.14412,0.150687 0.20621,0.45604 0.26758,0.759765 h -2.10547 c 0.0688,-0.298841 0.13594,-0.603421 0.2793,-0.757812 0.20516,-0.220707 0.44094,-0.320313 0.76757,-0.320313 z"
           id="path24526" />
      </g>
      <g
         id="path24465"
         transform="matrix(1.6619704,0,0,1.6619704,-335.38893,20.29967)">
        <path
           style="color:#000000;-inkscape-font-specification:'Arial Rounded MT Bold, ';stroke:none;-inkscape-stroke:none"
           d="m 184.50281,14.310441 q 0,0.63919 -0.31111,1.09737 -0.31111,0.452523 -0.92202,0.690098 -0.60525,0.231918 -1.47635,0.231918 -0.83152,0 -1.42545,-0.254544 -0.59394,-0.254545 -0.87677,-0.633533 -0.28283,-0.384645 -0.28283,-0.76929 0,-0.254544 0.18101,-0.435554 0.18101,-0.181009 0.45818,-0.181009 0.24324,0 0.37334,0.118787 0.1301,0.118788 0.24888,0.333736 0.23758,0.412928 0.56566,0.616564 0.33373,0.203635 0.90505,0.203635 0.46383,0 0.75797,-0.203635 0.2998,-0.209293 0.2998,-0.47515 0,-0.407271 -0.31111,-0.593937 -0.30545,-0.186666 -1.01252,-0.356362 -0.79757,-0.197979 -1.30101,-0.412928 -0.49777,-0.220605 -0.79757,-0.576967 -0.2998,-0.356363 -0.2998,-0.876765 0,-0.463836 0.27717,-0.876764 0.27717,-0.412927 0.81455,-0.656159 0.54302,-0.248888 1.30666,-0.248888 0.59959,0 1.07474,0.124444 0.48081,0.124444 0.79757,0.333736 0.32243,0.209292 0.48647,0.463837 0.16969,0.254544 0.16969,0.497776 0,0.265857 -0.18101,0.435553 -0.17535,0.169697 -0.50343,0.169697 -0.23757,0 -0.40727,-0.135757 -0.16404,-0.135757 -0.37899,-0.407271 -0.17535,-0.226262 -0.41293,-0.362019 -0.23757,-0.135757 -0.64484,-0.135757 -0.41859,0 -0.69576,0.181009 -0.27717,0.175353 -0.27717,0.441211 0,0.243231 0.20364,0.401614 0.20363,0.152727 0.54868,0.254545 0.34505,0.101817 0.9503,0.248887 0.71838,0.175353 1.17091,0.418585 0.45818,0.243231 0.69009,0.576967 0.23758,0.32808 0.23758,0.75232 z"
           id="path24532" />
        <path
           style="color:#000000;-inkscape-font-specification:'Arial Rounded MT Bold, ';fill:#9a1300;stroke:none;-inkscape-stroke:none"
           d="m 181.67383,9.8007813 c -0.53625,0 -1.00779,0.087064 -1.41016,0.2714847 -0.39125,0.177366 -0.70445,0.426048 -0.91797,0.74414 -0.20892,0.31125 -0.32031,0.656605 -0.32031,1.015625 0,0.394942 0.12092,0.755613 0.35938,1.039063 0.22738,0.270285 0.52628,0.48479 0.88671,0.644531 h 0.002 0.002 c 0.35398,0.151136 0.79954,0.291662 1.33984,0.425781 v 0.002 c 0.4591,0.110183 0.78225,0.228909 0.94141,0.326172 h 0.002 c 0.13863,0.08317 0.18946,0.173003 0.18946,0.38086 0,0.08326 -0.0342,0.158443 -0.19336,0.269531 -0.14541,0.100201 -0.34341,0.158203 -0.61524,0.158203 -0.35033,0 -0.60313,-0.06373 -0.77148,-0.166016 -0.176,-0.109239 -0.33689,-0.280899 -0.47852,-0.52539 l -0.004,-0.0039 c -0.0876,-0.157708 -0.18393,-0.28945 -0.29688,-0.392579 -0.14402,-0.131501 -0.33816,-0.183593 -0.54101,-0.183593 -0.23921,0 -0.46898,0.08812 -0.63477,0.253906 -0.1621,0.162105 -0.25391,0.382373 -0.25391,0.611328 0,0.317705 0.11797,0.629497 0.33008,0.917969 h 0.002 v 0.002 c 0.22267,0.298383 0.55447,0.531158 0.97851,0.71289 0.43478,0.186337 0.94358,0.275391 1.52344,0.275391 0.60292,0 1.12549,-0.0791 1.5664,-0.248047 v -0.002 c 0.44389,-0.172621 0.79995,-0.433448 1.03907,-0.78125 0.23775,-0.350151 0.35351,-0.771594 0.35351,-1.238281 0,-0.329494 -0.0967,-0.638257 -0.28515,-0.898438 -0.18179,-0.259855 -0.44464,-0.475435 -0.77344,-0.65039 l -0.002,-0.002 c -0.3279,-0.175953 -0.73642,-0.319335 -1.22852,-0.439453 -0.40123,-0.0975 -0.71418,-0.180199 -0.9375,-0.246094 -0.20852,-0.06153 -0.36391,-0.13642 -0.4668,-0.212891 -0.0868,-0.06751 -0.10742,-0.11074 -0.10742,-0.203125 0,-0.09036 0.0256,-0.144086 0.16211,-0.230469 v -0.002 h 0.002 c 0.13654,-0.08917 0.31557,-0.140625 0.5586,-0.140625 0.24373,0 0.41653,0.04354 0.52148,0.103516 0.12945,0.07397 0.2416,0.170109 0.33985,0.296875 v 0.002 h 0.002 c 0.14992,0.189377 0.28296,0.33681 0.41406,0.445313 l 0.002,0.002 h 0.002 c 0.15757,0.126054 0.35845,0.191406 0.56445,0.191406 0.26091,0 0.50106,-0.0722 0.67383,-0.238281 l 0.002,-0.002 c 0.16698,-0.157603 0.25781,-0.382153 0.25781,-0.615235 10e-6,-0.218872 -0.077,-0.433628 -0.20898,-0.632812 -0.13239,-0.205432 -0.32224,-0.383304 -0.55859,-0.53711 -0.2407,-0.159036 -0.53249,-0.279043 -0.87305,-0.3671872 -0.3417,-0.089493 -0.72165,-0.1328125 -1.13867,-0.1328125 z m 0,0.4999997 c 0.38243,0 0.71988,0.04075 1.01172,0.117188 h 0.002 c 0.30052,0.07778 0.53906,0.180762 0.7207,0.300781 h 0.002 c 0.19237,0.124869 0.32625,0.257396 0.41211,0.390625 h 0.002 l 0.002,0.002 c 0.0927,0.139116 0.12695,0.255358 0.12695,0.359375 0,0.1205 -0.0284,0.185329 -0.10156,0.253906 h -0.002 l -0.002,0.002 c -0.0609,0.05894 -0.15251,0.09961 -0.32813,0.09961 -0.10895,0 -0.18037,-0.025 -0.24805,-0.07813 -2.4e-4,-2.06e-4 2.5e-4,-0.0017 0,-0.002 -0.0868,-0.07199 -0.20694,-0.195299 -0.34179,-0.365235 -0.13556,-0.174916 -0.299,-0.320691 -0.48633,-0.427734 -0.21181,-0.121037 -0.47024,-0.167969 -0.76953,-0.167969 -0.31353,0 -0.59576,0.0701 -0.82813,0.220703 -5.1e-4,3.24e-4 5.1e-4,0.0016 0,0.002 -0.23219,0.147507 -0.39453,0.386852 -0.39453,0.65039 0,0.231923 0.11607,0.453992 0.30078,0.597656 l 0.002,0.002 0.002,0.002 c 0.16864,0.126486 0.37718,0.219265 0.62695,0.292968 0.23675,0.06986 0.55712,0.153355 0.96289,0.251954 0.4648,0.113455 0.83617,0.248586 1.11133,0.396484 0.27906,0.148141 0.4767,0.317495 0.60352,0.5 v 0.002 l 0.002,0.002 c 0.12836,0.17726 0.18945,0.36931 0.18945,0.605469 0,0.385566 -0.0905,0.696276 -0.26758,0.957031 -0.17567,0.25456 -0.43503,0.453903 -0.80468,0.597656 -0.36608,0.140274 -0.82817,0.214844 -1.38672,0.214844 -0.52884,0 -0.96905,-0.08132 -1.32617,-0.234375 -0.36726,-0.157397 -0.61894,-0.346207 -0.77344,-0.552734 -0.16499,-0.224388 -0.23438,-0.425939 -0.23438,-0.621094 0,-0.110436 0.0282,-0.178571 0.10743,-0.257812 0.0756,-0.07556 0.15089,-0.107422 0.28125,-0.107422 0.12146,0 0.17563,0.02585 0.20507,0.05273 0.0593,0.05411 0.12734,0.142988 0.19727,0.269531 l 0.002,0.002 0.002,0.002 c 0.17433,0.303003 0.39031,0.543651 0.65039,0.705078 0.27663,0.168796 0.62457,0.240234 1.03515,0.240234 0.34581,0 0.65374,-0.07728 0.90039,-0.248047 h 0.002 c 0.2406,-0.167969 0.40625,-0.408477 0.40625,-0.679687 0,-0.335171 -0.15545,-0.642881 -0.43164,-0.808594 -0.24765,-0.151034 -0.60033,-0.269051 -1.08204,-0.384766 h -0.002 c -0.5221,-0.129684 -0.94294,-0.265119 -1.25976,-0.40039 -0.30187,-0.134201 -0.53327,-0.30359 -0.70508,-0.507813 -0.16128,-0.191701 -0.24219,-0.41787 -0.24219,-0.716797 0,-0.259427 0.0757,-0.497008 0.23633,-0.736328 0.15577,-0.232068 0.38444,-0.421462 0.70898,-0.568359 h 0.002 c 0.32166,-0.147431 0.71924,-0.226563 1.20117,-0.226563 z"
           id="path24534" />
      </g>
      <g
         id="path24467"
         transform="matrix(1.6619704,0,0,1.6619704,-335.38893,20.29967)">
        <path
           style="color:#000000;-inkscape-font-specification:'Arial Rounded MT Bold, ';stroke:none;-inkscape-stroke:none"
           d="m 190.78157,14.310441 q 0,0.63919 -0.31111,1.09737 -0.31111,0.452523 -0.92201,0.690098 -0.60525,0.231918 -1.47636,0.231918 -0.83151,0 -1.42545,-0.254544 -0.59394,-0.254545 -0.87677,-0.633533 -0.28282,-0.384645 -0.28282,-0.76929 0,-0.254544 0.18101,-0.435554 0.18101,-0.181009 0.45818,-0.181009 0.24323,0 0.37333,0.118787 0.1301,0.118788 0.24889,0.333736 0.23757,0.412928 0.56565,0.616564 0.33374,0.203635 0.90505,0.203635 0.46383,0 0.75797,-0.203635 0.2998,-0.209293 0.2998,-0.47515 0,-0.407271 -0.31111,-0.593937 -0.30545,-0.186666 -1.01252,-0.356362 -0.79757,-0.197979 -1.301,-0.412928 -0.49778,-0.220605 -0.79758,-0.576967 -0.29979,-0.356363 -0.29979,-0.876765 0,-0.463836 0.27717,-0.876764 0.27717,-0.412927 0.81454,-0.656159 0.54303,-0.248888 1.30666,-0.248888 0.59959,0 1.07474,0.124444 0.48081,0.124444 0.79758,0.333736 0.32242,0.209292 0.48646,0.463837 0.1697,0.254544 0.1697,0.497776 0,0.265857 -0.18101,0.435553 -0.17536,0.169697 -0.50344,0.169697 -0.23757,0 -0.40727,-0.135757 -0.16404,-0.135757 -0.37899,-0.407271 -0.17535,-0.226262 -0.41292,-0.362019 -0.23758,-0.135757 -0.64485,-0.135757 -0.41858,0 -0.69575,0.181009 -0.27717,0.175353 -0.27717,0.441211 0,0.243231 0.20363,0.401614 0.20364,0.152727 0.54869,0.254545 0.34504,0.101817 0.95029,0.248887 0.71839,0.175353 1.17091,0.418585 0.45818,0.243231 0.6901,0.576967 0.23757,0.32808 0.23757,0.75232 z"
           id="path24540" />
        <path
           style="color:#000000;-inkscape-font-specification:'Arial Rounded MT Bold, ';fill:#9a1300;stroke:none;-inkscape-stroke:none"
           d="m 187.95312,9.8007813 c -0.53624,0 -1.00778,0.087065 -1.41015,0.2714847 -0.39195,0.177411 -0.70418,0.425641 -0.91797,0.74414 -0.20892,0.31125 -0.32031,0.656605 -0.32031,1.015625 0,0.394941 0.12092,0.755613 0.35937,1.039063 0.22739,0.270286 0.52628,0.48479 0.88672,0.644531 h 0.002 0.002 c 0.35397,0.151137 0.79758,0.291662 1.33789,0.425781 l 0.002,0.002 c 0.4591,0.110183 0.78225,0.228909 0.94141,0.326172 h 0.002 c 0.13862,0.08317 0.18945,0.173003 0.18945,0.38086 0,0.08326 -0.0342,0.158443 -0.19336,0.269531 -0.14552,0.100751 -0.3426,0.158203 -0.61523,0.158203 -0.35032,0 -0.60508,-0.06373 -0.77344,-0.166016 -0.17632,-0.109439 -0.3367,-0.280175 -0.47851,-0.52539 l -0.002,-0.0039 c -0.0878,-0.158205 -0.18366,-0.289207 -0.29687,-0.392579 -0.14402,-0.131499 -0.33817,-0.183593 -0.54102,-0.183593 -0.2392,0 -0.46897,0.08812 -0.63476,0.253906 -0.16211,0.162105 -0.25586,0.382373 -0.25586,0.611328 0,0.317703 0.11992,0.629497 0.33203,0.917969 l 0.002,0.002 c 0.22268,0.298383 0.55447,0.531158 0.97852,0.71289 0.43478,0.186336 0.94359,0.275391 1.52344,0.275391 0.60292,0 1.12548,-0.0791 1.5664,-0.248047 v -0.002 c 0.44388,-0.172621 0.798,-0.433449 1.03711,-0.78125 h 0.002 c 0.23776,-0.350151 0.35352,-0.771594 0.35352,-1.238281 0,-0.329492 -0.0967,-0.638257 -0.28516,-0.898438 -0.18179,-0.259853 -0.44464,-0.475435 -0.77343,-0.65039 l -0.002,-0.002 c -0.32788,-0.175954 -0.73641,-0.319335 -1.22851,-0.439453 -0.40123,-0.0975 -0.71615,-0.180199 -0.93946,-0.246094 -0.20851,-0.06153 -0.36194,-0.136419 -0.46484,-0.212891 -0.0868,-0.06751 -0.10742,-0.110737 -0.10742,-0.203125 0,-0.09036 0.0236,-0.144086 0.16015,-0.230469 l 0.002,-0.002 h 0.002 c 0.13654,-0.08917 0.31558,-0.140625 0.55859,-0.140625 0.24374,0 0.41653,0.04354 0.52149,0.103516 0.12944,0.07397 0.23965,0.170107 0.33789,0.296875 l 0.002,0.002 c 0.14993,0.189377 0.28491,0.33681 0.41602,0.445313 l 0.002,0.002 h 0.002 c 0.15758,0.126054 0.35651,0.191406 0.5625,0.191406 0.26092,0 0.50301,-0.0722 0.67579,-0.238281 l 0.002,-0.002 c 0.16697,-0.157603 0.25781,-0.382153 0.25781,-0.615235 0,-0.218876 -0.079,-0.433627 -0.21094,-0.632812 -0.13238,-0.20543 -0.32224,-0.383303 -0.55859,-0.53711 -0.24025,-0.158732 -0.53137,-0.27909 -0.87109,-0.3671872 h -0.002 c -0.34124,-0.089184 -0.7204,-0.1328125 -1.13672,-0.1328125 z m 0,0.4999997 c 0.38244,0 0.71989,0.04075 1.01172,0.117188 0.30052,0.07778 0.541,0.18076 0.72266,0.300781 h 0.002 c 0.19237,0.124869 0.32625,0.257394 0.41211,0.390625 h 0.002 v 0.002 c 0.0927,0.139116 0.1289,0.255361 0.1289,0.359375 0,0.1205 -0.0304,0.185329 -0.10351,0.253906 l -0.002,0.002 c -0.0609,0.05895 -0.15446,0.09961 -0.33008,0.09961 -0.11075,0 -0.1813,-0.02512 -0.25,-0.08008 -0.0867,-0.07207 -0.2034,-0.19576 -0.33789,-0.365235 -0.13555,-0.174914 -0.299,-0.320691 -0.48632,-0.427734 -0.21182,-0.121035 -0.47024,-0.167969 -0.76954,-0.167969 -0.31508,0 -0.59901,0.07048 -0.83203,0.222657 -0.23169,0.147557 -0.39062,0.387203 -0.39062,0.65039 0,0.23192 0.11607,0.453991 0.30078,0.597656 l 0.002,0.002 v 0.002 c 0.16865,0.126483 0.37914,0.219265 0.62891,0.292968 0.23674,0.06986 0.55517,0.153355 0.96094,0.251954 0.4648,0.113454 0.83813,0.248588 1.11328,0.396484 0.27906,0.148141 0.47473,0.317492 0.60156,0.5 l 0.002,0.002 0.002,0.002 c 0.12835,0.177259 0.18945,0.369308 0.18945,0.605469 0,0.384836 -0.0912,0.694628 -0.26758,0.955078 -0.1757,0.255562 -0.43598,0.455465 -0.80664,0.599609 -0.36584,0.139901 -0.82698,0.214844 -1.38476,0.214844 -0.52883,0 -0.96904,-0.08132 -1.32618,-0.234375 -0.36787,-0.15766 -0.62096,-0.3458 -0.77539,-0.552734 -0.16498,-0.224388 -0.23437,-0.425937 -0.23437,-0.621094 0,-0.110436 0.0301,-0.178571 0.10937,-0.257812 0.0756,-0.07556 0.1509,-0.107422 0.28125,-0.107422 0.12146,0 0.17368,0.02585 0.20313,0.05273 0.0593,0.05411 0.12928,0.142986 0.19922,0.269531 l 0.002,0.002 v 0.002 c 0.17433,0.303005 0.39031,0.54365 0.65039,0.705078 h 0.002 c 0.27664,0.168793 0.62458,0.240234 1.03516,0.240234 0.34581,0 0.65373,-0.07728 0.90039,-0.248047 h 0.002 c 0.24061,-0.167969 0.40625,-0.408477 0.40625,-0.679687 0,-0.335171 -0.1574,-0.642881 -0.43359,-0.808594 -0.24765,-0.151033 -0.59838,-0.269051 -1.08008,-0.384766 h -0.002 c -0.5204,-0.129261 -0.94135,-0.26361 -1.25781,-0.398437 l -0.004,-0.002 c -0.30106,-0.134086 -0.53163,-0.303964 -0.70313,-0.507813 -0.16126,-0.1917 -0.24218,-0.417869 -0.24218,-0.716797 0,-0.259427 0.0737,-0.497008 0.23437,-0.736328 0.15577,-0.232069 0.3864,-0.421462 0.71094,-0.568359 0.32167,-0.147432 0.7212,-0.226563 1.20312,-0.226563 z"
           id="path24542" />
      </g>
      <g
         id="path24469"
         transform="matrix(1.6619704,0,0,1.6619704,-335.38893,20.29967)">
        <path
           style="color:#000000;-inkscape-font-specification:'Arial Rounded MT Bold, ';stroke:none;-inkscape-stroke:none"
           d="m 197.86922,13.190446 q 0,0.690098 -0.21495,1.272722 -0.21495,0.582624 -0.62222,1.001208 -0.40727,0.418584 -0.97292,0.644846 -0.56566,0.220605 -1.27273,0.220605 -0.70141,0 -1.2614,-0.226262 -0.56,-0.226261 -0.97293,-0.644845 -0.40727,-0.424241 -0.62222,-0.995552 -0.20929,-0.576967 -0.20929,-1.272722 0,-0.701412 0.21495,-1.284036 0.21495,-0.582624 0.61656,-0.995551 0.40161,-0.412928 0.97293,-0.633533 0.57131,-0.226262 1.2614,-0.226262 0.70142,0 1.27273,0.226262 0.57131,0.226262 0.97858,0.644846 0.40727,0.418584 0.61656,0.995552 0.21495,0.576967 0.21495,1.272722 z m -1.54989,0 q 0,-0.944643 -0.41859,-1.470701 -0.41292,-0.526059 -1.11434,-0.526059 -0.45252,0 -0.79757,0.237575 -0.34505,0.231918 -0.53171,0.690098 -0.18667,0.45818 -0.18667,1.069087 0,0.60525 0.18101,1.057773 0.18667,0.452524 0.52606,0.695755 0.34505,0.237575 0.80888,0.237575 0.70142,0 1.11434,-0.526059 0.41859,-0.531715 0.41859,-1.465044 z"
           id="path24548" />
        <path
           style="color:#000000;-inkscape-font-specification:'Arial Rounded MT Bold, ';fill:#9a1300;stroke:none;-inkscape-stroke:none"
           d="m 194.78711,9.8007813 c -0.48738,0 -0.9406,0.080611 -1.35352,0.2441407 -0.41074,0.158843 -0.76739,0.389987 -1.06054,0.691406 -0.29317,0.301432 -0.51772,0.666127 -0.67188,1.083985 -0.15457,0.41898 -0.23047,0.877948 -0.23047,1.371093 0,0.488904 0.0741,0.942495 0.22461,1.357422 v 0.002 c 0.15445,0.410491 0.38066,0.774611 0.67578,1.082032 h 0.002 l 0.002,0.002 c 0.29915,0.303246 0.65345,0.538267 1.05664,0.701171 0.40694,0.164424 0.86098,0.244141 1.35547,0.244141 0.49738,0 0.95332,-0.0784 1.36328,-0.238281 h 0.002 c 0.40725,-0.162901 0.76244,-0.398744 1.0586,-0.703125 0.29661,-0.304852 0.52341,-0.671565 0.67773,-1.089844 0.1544,-0.418487 0.23047,-0.8714 0.23047,-1.357422 0,-0.488898 -0.0761,-0.944393 -0.23047,-1.359375 v -0.002 c -0.15064,-0.414621 -0.37564,-0.777565 -0.67187,-1.082031 -0.29656,-0.304796 -0.65537,-0.540339 -1.06641,-0.703125 -0.41344,-0.1637383 -0.86879,-0.2441408 -1.36328,-0.2441407 z m 0,0.4999997 c 0.44073,0 0.83138,0.07104 1.17969,0.208985 0.35071,0.138896 0.64611,0.332621 0.89257,0.585937 0.24641,0.253249 0.43214,0.554207 0.56055,0.908203 v 0.002 c 0.13182,0.353838 0.19922,0.747456 0.19922,1.185547 0,0.434109 -0.067,0.827203 -0.19922,1.185547 -0.13228,0.358552 -0.31999,0.65885 -0.5664,0.91211 -0.24688,0.25373 -0.53977,0.449109 -0.88672,0.58789 -0.34386,0.133834 -0.73503,0.203125 -1.17969,0.203125 -0.44073,0 -0.82826,-0.07173 -1.16797,-0.208984 -0.3426,-0.138424 -0.63572,-0.332024 -0.88672,-0.585938 l -0.002,-0.002 c -0.2466,-0.257401 -0.43461,-0.556571 -0.56641,-0.90625 v -0.002 c -0.12813,-0.353921 -0.19336,-0.745529 -0.19336,-1.183594 0,-0.44207 0.0672,-0.841368 0.19922,-1.199218 0.13244,-0.358974 0.31824,-0.657114 0.56055,-0.90625 0.24194,-0.248762 0.53442,-0.440892 0.88476,-0.576172 h 0.002 c 0.34883,-0.138153 0.73718,-0.208985 1.16992,-0.208985 z m 0,0.642578 c -0.34477,0 -0.66575,0.09463 -0.9375,0.28125 -0.27597,0.185489 -0.48386,0.461084 -0.62305,0.802735 -0.13909,0.341407 -0.20703,0.731328 -0.20703,1.164062 0,0.428422 0.0643,0.813024 0.19922,1.150391 h 0.002 v 0.002 c 0.1388,0.33646 0.34304,0.61046 0.61133,0.802734 l 0.002,0.002 0.002,0.002 c 0.27313,0.188056 0.59927,0.28125 0.95117,0.28125 0.53011,0 0.99282,-0.216306 1.31055,-0.621094 0.32303,-0.410338 0.4707,-0.959548 0.4707,-1.619141 0,-0.666688 -0.1482,-1.219196 -0.47266,-1.626953 -0.31769,-0.403838 -0.77912,-0.621094 -1.30859,-0.621094 z m 0,0.5 c 0.40511,0 0.68319,0.135017 0.91601,0.431641 h 0.002 c 0.23366,0.293654 0.36328,0.723571 0.36328,1.316406 0,0.584845 -0.1282,1.009979 -0.36328,1.308594 v 0.002 h -0.002 c -0.23282,0.296624 -0.5109,0.429688 -0.91601,0.429688 -0.26489,0 -0.47795,-0.06428 -0.66406,-0.191407 -3.9e-4,-2.8e-4 3.9e-4,-0.0017 0,-0.002 -0.18261,-0.131221 -0.32981,-0.318157 -0.43946,-0.582031 v -0.002 c -0.10599,-0.265687 -0.16406,-0.585058 -0.16406,-0.962891 0,-0.381807 0.0601,-0.707064 0.16992,-0.976562 0.1097,-0.269256 0.25536,-0.452437 0.43946,-0.576172 l 0.002,-0.002 c 0.18799,-0.129434 0.39832,-0.19336 0.65625,-0.19336 z"
           id="path24550" />
      </g>
      <g
         id="path24471"
         transform="matrix(1.6619704,0,0,1.6619704,-335.38893,20.29967)">
        <path
           style="color:#000000;-inkscape-font-specification:'Arial Rounded MT Bold, ';stroke:none;-inkscape-stroke:none"
           d="m 200.6183,14.101149 v 1.289692 q 0,0.469493 -0.22061,0.707068 -0.2206,0.231918 -0.55999,0.231918 -0.33374,0 -0.54869,-0.237575 -0.21495,-0.237574 -0.21495,-0.701411 v -4.298973 q 0,-1.040804 0.75232,-1.040804 0.38465,0 0.55434,0.243232 0.1697,0.243231 0.18667,0.718381 0.27717,-0.47515 0.56565,-0.718381 0.29415,-0.243232 0.78061,-0.243232 0.48646,0 0.94464,0.243232 0.45818,0.243231 0.45818,0.644846 0,0.282827 -0.19798,0.469493 -0.19232,0.181009 -0.41858,0.181009 -0.0848,0 -0.41293,-0.101818 -0.32242,-0.107474 -0.57131,-0.107474 -0.33939,0 -0.55434,0.181009 -0.21495,0.175353 -0.33374,0.526059 -0.11879,0.350705 -0.16404,0.837168 -0.0452,0.480806 -0.0452,1.176561 z"
           id="path24556" />
        <path
           style="color:#000000;-inkscape-font-specification:'Arial Rounded MT Bold, ';fill:#9a1300;stroke:none;-inkscape-stroke:none"
           d="m 199.82617,9.8007813 c -0.30842,0 -0.59584,0.1256848 -0.76758,0.3632817 -0.17174,0.237596 -0.23437,0.550682 -0.23437,0.927734 v 4.298828 c 0,0.347842 0.0817,0.650736 0.2793,0.869141 0.18648,0.206116 0.45256,0.320312 0.73437,0.320312 0.28321,0 0.54904,-0.109546 0.74023,-0.310547 h 0.002 v -0.002 c 0.20295,-0.218556 0.28906,-0.524801 0.28906,-0.876953 v -1.039062 -0.25 c 0,-0.458423 0.0139,-0.844948 0.043,-1.154297 0.0288,-0.309737 0.0813,-0.569625 0.15234,-0.779297 0.0686,-0.202399 0.15834,-0.332552 0.25586,-0.41211 v -0.002 l 0.002,-0.002 c 0.0937,-0.07891 0.21076,-0.121094 0.39257,-0.121094 0.12995,0 0.29555,0.0282 0.49219,0.09375 l 0.004,0.002 h 0.002 c 0.11229,0.03484 0.2047,0.0612 0.28125,0.08008 0.0766,0.01887 0.12678,0.0332 0.20508,0.0332 0.21751,0 0.426,-0.09579 0.58984,-0.25 0.17784,-0.167678 0.27735,-0.403506 0.27735,-0.650391 0,-0.362813 -0.23601,-0.67636 -0.5918,-0.865234 -0.33782,-0.1793362 -0.69457,-0.2734377 -1.06055,-0.2734377 -0.36597,0 -0.69119,0.095497 -0.93945,0.3007817 h -0.002 v 0.002 c -0.10721,0.09039 -0.19985,0.251051 -0.29883,0.375 -0.035,-0.103843 -0.0285,-0.242981 -0.0879,-0.328125 -0.16385,-0.2348531 -0.45064,-0.3496097 -0.75977,-0.3496097 z m 0,0.4999997 c 0.20374,0 0.2872,0.04726 0.34961,0.136719 0.0717,0.10271 0.13227,0.295403 0.14258,0.583984 l 0.0293,0.863282 0.43554,-0.746094 c 0.17512,-0.300197 0.35057,-0.516469 0.51172,-0.652344 0.14382,-0.11838 0.33732,-0.185547 0.61914,-0.185547 0.28264,0 0.55309,0.06987 0.82617,0.214844 0.25512,0.135434 0.32618,0.251155 0.32618,0.423828 0,0.130218 -0.033,0.205899 -0.11914,0.28711 -0.0926,0.08714 -0.16388,0.113281 -0.24805,0.113281 0.0218,0 -0.0248,-0.0025 -0.0859,-0.01758 -0.0602,-0.01485 -0.1437,-0.03995 -0.24805,-0.07227 h -0.004 c -0.23169,-0.07689 -0.44575,-0.119141 -0.64649,-0.119141 -0.27004,0 -0.52018,0.07862 -0.71289,0.240235 -0.18737,0.154113 -0.32279,0.373019 -0.41211,0.636719 -0.0874,0.257934 -0.14426,0.555651 -0.17578,0.894531 -0.0246,0.262312 -0.0302,0.601414 -0.0352,0.949219 h -0.01 v 0.25 1.289062 c 0,0.272918 -0.0636,0.436829 -0.1543,0.535156 -3e-4,3.32e-4 3.1e-4,0.0016 0,0.002 -0.10234,0.106781 -0.20869,0.152344 -0.37695,0.152344 -0.16317,0 -0.26317,-0.0456 -0.36328,-0.15625 -0.089,-0.09836 -0.15039,-0.262597 -0.15039,-0.533203 v -4.298828 c 0,-0.316817 0.0616,-0.525428 0.14062,-0.634766 0.079,-0.109338 0.1682,-0.15625 0.36133,-0.15625 z"
           id="path24558" />
      </g>
      <g
         id="path24473"
         transform="matrix(1.6619704,0,0,1.6619704,-335.38893,20.29967)">
        <path
           style="color:#000000;-inkscape-font-specification:'Arial Rounded MT Bold, ';stroke:none;-inkscape-stroke:none"
           d="m 205.70353,10.927828 v 4.463013 q 0,0.463837 -0.2206,0.701411 -0.22061,0.237575 -0.56,0.237575 -0.33939,0 -0.55434,-0.243231 -0.20929,-0.243232 -0.20929,-0.695755 v -4.41776 q 0,-0.45818 0.20929,-0.690098 0.21495,-0.231919 0.55434,-0.231919 0.33939,0 0.56,0.231919 0.2206,0.231918 0.2206,0.644845 z M 204.9399,9.3326833 q -0.32242,0 -0.55434,-0.197979 -0.22626,-0.197979 -0.22626,-0.5599978 0,-0.3280795 0.23192,-0.5373716 0.23757,-0.2149487 0.54868,-0.2149487 0.2998,0 0.53172,0.1923225 0.23191,0.1923225 0.23191,0.5599978 0,0.3563622 -0.22626,0.5599978 -0.22626,0.197979 -0.53737,0.197979 z"
           id="path24564" />
        <path
           style="color:#000000;-inkscape-font-specification:'Arial Rounded MT Bold, ';fill:#9a1300;stroke:none;-inkscape-stroke:none"
           d="m 204.93945,7.5722656 c -0.26435,0 -0.51642,0.1003742 -0.71484,0.2792969 -0.20285,0.1830571 -0.31445,0.4450284 -0.31445,0.7226563 0,0.2934285 0.10287,0.566333 0.31054,0.7480468 l 0.002,0.00195 c 0.19812,0.1691288 0.45068,0.2578125 0.71679,0.2578125 0.26044,0 0.50955,-0.090386 0.70313,-0.2597657 l 0.002,-0.00195 c 0.20474,-0.1842663 0.3086,-0.4556096 0.30859,-0.7460937 0,-0.2976788 -0.1074,-0.5737674 -0.32226,-0.7519532 -0.19536,-0.1620028 -0.43808,-0.25 -0.69141,-0.25 z m 0,0.5 c 0.14641,0 0.25918,0.040339 0.37305,0.1347657 0.0943,0.078244 0.14062,0.174633 0.14062,0.3671875 0,0.1835051 -0.0449,0.2861572 -0.14062,0.3730468 -5e-4,4.381e-4 -0.001,-4.358e-4 -0.002,0 -4.4e-4,3.977e-4 4.4e-4,0.00156 0,0.00195 -0.10746,0.093332 -0.21769,0.1328125 -0.3711,0.1328125 -0.16279,0 -0.27816,-0.041109 -0.38867,-0.1347657 l -0.002,-0.00195 c -0.0928,-0.081968 -0.13867,-0.1830257 -0.13867,-0.3710937 0,-0.1598111 0.0421,-0.2555638 0.14843,-0.3515625 0.11812,-0.106873 0.23103,-0.1503907 0.38086,-0.1503907 z m -0.0156,1.7285157 c -0.28321,0 -0.55039,0.1097752 -0.73828,0.3124997 l -0.002,0.002 c -0.19438,0.215403 -0.27343,0.513904 -0.27343,0.857422 v 4.417969 c 0,0.340223 0.08,0.639117 0.26953,0.859375 l 0.002,0.002 c 0.18653,0.211077 0.45621,0.328125 0.74219,0.328125 0.28459,0 0.55161,-0.113133 0.74219,-0.318359 0.20226,-0.217832 0.2871,-0.522237 0.2871,-0.871094 v -4.462891 c 0,-0.319804 -0.0909,-0.608108 -0.28906,-0.816406 -0.19119,-0.2009986 -0.45703,-0.3105467 -0.74023,-0.3105467 z m 0,0.4999997 c 0.16931,0 0.27596,0.04607 0.3789,0.154297 0.096,0.100926 0.1504,0.241892 0.15039,0.472656 v 4.462891 c 0,0.269591 -0.0624,0.432317 -0.15429,0.53125 -0.10358,0.11154 -0.20708,0.158203 -0.375,0.158203 -0.16547,0 -0.26581,-0.04461 -0.36524,-0.15625 v -0.002 c -0.089,-0.104114 -0.14843,-0.269004 -0.14843,-0.53125 v -4.417969 c 0,-0.266457 0.0603,-0.425568 0.14453,-0.519531 2.9e-4,-3.28e-4 -3e-4,-0.0016 0,-0.002 0.0981,-0.105052 0.2009,-0.150391 0.36914,-0.150391 z"
           id="path24566" />
      </g>
      <g
         id="path24475"
         transform="matrix(1.6619704,0,0,1.6619704,-335.38893,20.29967)">
        <path
           style="color:#000000;-inkscape-font-specification:'Arial Rounded MT Bold, ';stroke:none;-inkscape-stroke:none"
           d="m 211.60896,13.569434 h -3.02059 q 0.006,0.526059 0.20929,0.927673 0.20929,0.401615 0.54869,0.60525 0.34505,0.203636 0.75797,0.203636 0.27717,0 0.50344,-0.06222 0.23191,-0.06788 0.44686,-0.203636 0.21495,-0.141413 0.39596,-0.299796 0.18101,-0.158384 0.46949,-0.429898 0.11879,-0.101817 0.3394,-0.101817 0.23757,0 0.38464,0.1301 0.14707,0.1301 0.14707,0.367675 0,0.209292 -0.16404,0.49212 -0.16404,0.27717 -0.49777,0.537371 -0.32808,0.254545 -0.83152,0.424241 -0.49777,0.169696 -1.14827,0.169696 -1.48767,0 -2.31353,-0.848481 -0.82585,-0.848482 -0.82585,-2.302213 0,-0.684442 0.20363,-1.267066 0.20364,-0.588281 0.59394,-1.006865 0.3903,-0.418584 0.96161,-0.639189 0.57131,-0.226262 1.26707,-0.226262 0.90504,0 1.54989,0.384645 0.6505,0.378989 0.97292,0.984239 0.32243,0.60525 0.32243,1.233126 0,0.582624 -0.33374,0.757977 -0.33374,0.169696 -0.93899,0.169696 z m -3.02059,-0.876764 h 2.79999 q -0.0566,-0.791916 -0.4299,-1.182218 -0.36767,-0.395958 -0.97292,-0.395958 -0.57697,0 -0.9503,0.401615 -0.36768,0.395958 -0.44687,1.176561 z"
           id="path24572" />
        <path
           style="color:#000000;-inkscape-font-specification:'Arial Rounded MT Bold, ';fill:#9a1300;stroke:none;-inkscape-stroke:none"
           d="m 210.03711,9.7890625 c -0.49094,0 -0.9462,0.080507 -1.35938,0.2441405 -0.41191,0.159308 -0.76635,0.394034 -1.05273,0.701172 -0.28525,0.305919 -0.50057,0.674181 -0.64648,1.095703 -0.14582,0.417199 -0.21875,0.868523 -0.21875,1.34961 0,1.016493 0.29614,1.859769 0.89648,2.476562 0.6029,0.619419 1.45483,0.923828 2.49414,0.923828 0.4547,0 0.86365,-0.06012 1.22656,-0.183594 0.35591,-0.119965 0.65986,-0.271723 0.90625,-0.46289 0.24077,-0.187721 0.42885,-0.388202 0.5586,-0.607422 l 0.002,-0.002 c 0.12279,-0.211703 0.19727,-0.412345 0.19727,-0.617188 0,-0.20997 -0.0759,-0.417917 -0.23047,-0.554687 -0.14809,-0.130996 -0.34677,-0.19336 -0.55078,-0.19336 -0.18554,0 -0.3647,0.04447 -0.50196,0.16211 l -0.004,0.0039 -0.006,0.0039 c -0.19099,0.179752 -0.34597,0.321518 -0.46289,0.423828 -0.1102,0.09642 -0.23074,0.1879 -0.36329,0.275391 -0.12359,0.07806 -0.25083,0.135351 -0.38085,0.173828 -0.12569,0.03456 -0.27143,0.05469 -0.4375,0.05469 -0.23419,0 -0.43842,-0.05635 -0.63086,-0.169922 -0.18139,-0.109409 -0.33014,-0.271236 -0.45118,-0.501953 v -0.002 c -4.9e-4,-9.45e-4 -0.001,-10e-4 -0.002,-0.002 -0.0791,-0.157349 -0.0978,-0.362586 -0.125,-0.560546 h 2.71484 c 0.42687,0 0.77582,-0.05646 1.05274,-0.197266 v -0.002 h 0.002 c 0.32342,-0.169929 0.4668,-0.542365 0.4668,-0.978516 0,-0.461377 -0.11974,-0.916402 -0.35156,-1.351562 -0.23757,-0.445964 -0.59825,-0.809276 -1.06641,-1.082032 -0.47377,-0.2821604 -1.0377,-0.4199215 -1.67578,-0.4199215 z m 0,0.5000005 c 0.56794,0 1.03617,0.119539 1.42187,0.349609 v 0.002 h 0.002 c 0.39917,0.232562 0.68462,0.52373 0.87695,0.884766 0.19809,0.371839 0.29297,0.741397 0.29297,1.117187 0,0.340681 -0.0777,0.471281 -0.19922,0.535156 -0.16829,0.08481 -0.44388,0.142578 -0.82227,0.142579 h -3.27343 l 0.002,0.251953 c 0.004,0.382177 0.0814,0.731009 0.23633,1.037109 l 0.002,0.002 v 0.002 c 0.15712,0.301502 0.37163,0.541728 0.64063,0.703125 h 0.002 v 0.002 c 0.26763,0.157943 0.56839,0.238282 0.88477,0.238282 0.20348,0 0.3943,-0.02387 0.57031,-0.07227 h 0.002 0.002 c 0.17775,-0.05203 0.34806,-0.130288 0.50977,-0.232422 l 0.002,-0.002 0.002,-0.002 c 0.15218,-0.10012 0.29399,-0.206711 0.42382,-0.320313 0.1223,-0.107006 0.2796,-0.24984 0.46875,-0.427734 0.0215,-0.01803 0.0683,-0.04102 0.17579,-0.04102 0.11274,0 0.17073,0.02394 0.21875,0.06641 0.0415,0.0367 0.0625,0.07484 0.0625,0.18164 0,0.07421 -0.0349,0.199834 -0.13086,0.365235 -0.0891,0.149756 -0.23027,0.30827 -0.4336,0.466797 -0.19104,0.148225 -0.44246,0.278469 -0.75781,0.384765 h -0.002 c -0.30037,0.102398 -0.65448,0.15625 -1.06641,0.15625 -0.94425,0 -1.63652,-0.261549 -2.13477,-0.773437 -0.50079,-0.514516 -0.75585,-1.205141 -0.75585,-2.126953 0,-0.431502 0.0638,-0.825915 0.18945,-1.185547 0.1256,-0.362852 0.30586,-0.665776 0.54101,-0.917969 0.23365,-0.250579 0.51999,-0.441351 0.86914,-0.576172 l 0.002,-0.002 c 0.34857,-0.138048 0.73904,-0.208984 1.17578,-0.208984 z m -0.0508,0.576171 c -0.44265,0 -0.84216,0.165687 -1.13477,0.480469 -0.29477,0.317442 -0.45543,0.767434 -0.51172,1.322266 l -0.0273,0.27539 h 0.27539 3.06836 l -0.0176,-0.267578 c -0.0403,-0.564013 -0.19712,-1.021216 -0.5,-1.33789 -0.29144,-0.311945 -0.69592,-0.472657 -1.15234,-0.472657 z m 0,0.5 c 0.34898,0 0.59049,0.100607 0.78906,0.314454 l 0.002,0.002 v 0.002 c 0.14413,0.150687 0.20621,0.45604 0.26758,0.759765 h -2.10547 c 0.0688,-0.29884 0.13594,-0.603421 0.2793,-0.757812 0.20516,-0.220704 0.44094,-0.320313 0.76758,-0.320313 z"
           id="path24574" />
      </g>
      <g
         id="path24477"
         transform="matrix(1.6619704,0,0,1.6619704,-335.38893,20.29967)">
        <path
           style="color:#000000;-inkscape-font-specification:'Arial Rounded MT Bold, ';stroke:none;-inkscape-stroke:none"
           d="m 219.15479,14.310441 q 0,0.63919 -0.31111,1.09737 -0.31111,0.452523 -0.92201,0.690098 -0.60525,0.231918 -1.47636,0.231918 -0.83151,0 -1.42545,-0.254544 -0.59394,-0.254545 -0.87676,-0.633533 -0.28283,-0.384645 -0.28283,-0.76929 0,-0.254544 0.18101,-0.435554 0.18101,-0.181009 0.45818,-0.181009 0.24323,0 0.37333,0.118787 0.1301,0.118788 0.24889,0.333736 0.23757,0.412928 0.56565,0.616564 0.33374,0.203635 0.90505,0.203635 0.46384,0 0.75798,-0.203635 0.29979,-0.209293 0.29979,-0.47515 0,-0.407271 -0.31111,-0.593937 -0.30545,-0.186666 -1.01252,-0.356362 -0.79757,-0.197979 -1.301,-0.412928 -0.49778,-0.220605 -0.79757,-0.576967 -0.2998,-0.356363 -0.2998,-0.876765 0,-0.463836 0.27717,-0.876764 0.27717,-0.412927 0.81454,-0.656159 0.54303,-0.248888 1.30666,-0.248888 0.5996,0 1.07475,0.124444 0.4808,0.124444 0.79757,0.333736 0.32242,0.209292 0.48646,0.463837 0.1697,0.254544 0.1697,0.497776 0,0.265857 -0.18101,0.435553 -0.17535,0.169697 -0.50343,0.169697 -0.23758,0 -0.40728,-0.135757 -0.16403,-0.135757 -0.37898,-0.407271 -0.17536,-0.226262 -0.41293,-0.362019 -0.23758,-0.135757 -0.64485,-0.135757 -0.41858,0 -0.69575,0.181009 -0.27717,0.175353 -0.27717,0.441211 0,0.243231 0.20363,0.401614 0.20364,0.152727 0.54869,0.254545 0.34505,0.101817 0.9503,0.248887 0.71838,0.175353 1.1709,0.418585 0.45818,0.243231 0.6901,0.576967 0.23757,0.32808 0.23757,0.75232 z"
           id="path24580" />
        <path
           style="color:#000000;-inkscape-font-specification:'Arial Rounded MT Bold, ';fill:#9a1300;stroke:none;-inkscape-stroke:none"
           d="m 216.32617,9.8007813 c -0.53624,0 -1.00778,0.087065 -1.41015,0.2714847 -0.39196,0.177411 -0.70419,0.425641 -0.91797,0.74414 -0.20892,0.31125 -0.32032,0.656605 -0.32032,1.015625 0,0.394942 0.12092,0.755613 0.35938,1.039063 0.22738,0.270288 0.52627,0.48479 0.88672,0.644531 h 0.002 0.002 c 0.35398,0.151137 0.79759,0.291662 1.33789,0.425781 l 0.002,0.002 c 0.45909,0.110183 0.78225,0.228909 0.9414,0.326172 h 0.002 c 0.13862,0.08317 0.18945,0.173003 0.18945,0.38086 0,0.08327 -0.0342,0.158444 -0.19336,0.269531 -0.1454,0.1002 -0.3434,0.158203 -0.61523,0.158203 -0.35117,0 -0.60509,-0.0633 -0.77344,-0.166016 -0.17632,-0.109439 -0.33671,-0.280175 -0.47852,-0.52539 l -0.002,-0.0039 c -0.0878,-0.158205 -0.18366,-0.289207 -0.29687,-0.392579 -0.14403,-0.131499 -0.33817,-0.183593 -0.54102,-0.183593 -0.2392,0 -0.46898,0.08812 -0.63477,0.253906 -0.1621,0.162105 -0.25585,0.382373 -0.25586,0.611328 0,0.317705 0.11992,0.629497 0.33204,0.917969 l 0.002,0.002 c 0.22267,0.298385 0.55447,0.531158 0.97851,0.71289 0.43479,0.186336 0.94359,0.275391 1.52344,0.275391 0.60293,0 1.12549,-0.0791 1.56641,-0.248047 v -0.002 c 0.44388,-0.172621 0.79799,-0.433449 1.03711,-0.78125 h 0.002 c 0.23776,-0.350151 0.35352,-0.771594 0.35352,-1.238281 0,-0.329492 -0.0968,-0.638257 -0.28516,-0.898438 -0.18179,-0.259853 -0.44464,-0.475435 -0.77344,-0.65039 l -0.002,-0.002 c -0.32789,-0.175954 -0.73642,-0.319335 -1.22852,-0.439453 -0.40122,-0.0975 -0.71613,-0.180199 -0.93945,-0.246094 -0.20851,-0.06153 -0.36194,-0.136419 -0.46484,-0.212891 -0.0868,-0.06751 -0.10742,-0.110737 -0.10742,-0.203125 0,-0.09036 0.0236,-0.144086 0.16015,-0.230469 l 0.002,-0.002 h 0.002 c 0.13654,-0.08917 0.31558,-0.140625 0.55859,-0.140625 0.24374,0 0.41653,0.04354 0.52149,0.103516 0.12944,0.07397 0.24159,0.170104 0.33984,0.296875 v 0.002 c 0.14992,0.189375 0.28492,0.336812 0.41602,0.445313 l 0.002,0.002 h 0.002 c 0.15757,0.126055 0.3565,0.191406 0.5625,0.191406 0.26092,0 0.50301,-0.0722 0.67578,-0.238281 l 0.002,-0.002 c 0.16697,-0.157603 0.25781,-0.382153 0.25781,-0.615235 0,-0.218876 -0.079,-0.433627 -0.21094,-0.632812 -0.13239,-0.20543 -0.32224,-0.383303 -0.55859,-0.53711 -0.24071,-0.159034 -0.53054,-0.279043 -0.8711,-0.3671872 -0.3417,-0.089493 -0.72164,-0.1328126 -1.13867,-0.1328125 z m 0,0.4999997 c 0.38244,0 0.71989,0.04075 1.01172,0.117188 0.30051,0.07778 0.541,0.180759 0.72266,0.300781 h 0.002 c 0.19236,0.124869 0.32625,0.257394 0.41211,0.390625 h 0.002 v 0.002 c 0.0927,0.139116 0.12891,0.255361 0.12891,0.359375 0,0.1205 -0.0284,0.185329 -0.10156,0.253906 h -0.002 l -0.002,0.002 c -0.0609,0.05894 -0.15446,0.09961 -0.33008,0.09961 -0.11077,0 -0.1813,-0.02512 -0.25,-0.08008 -0.0867,-0.07207 -0.2034,-0.195759 -0.33789,-0.365235 -0.13556,-0.174912 -0.29901,-0.320692 -0.48633,-0.427734 -0.21181,-0.121035 -0.47024,-0.167969 -0.76953,-0.167969 -0.31352,0 -0.59575,0.0701 -0.82812,0.220703 -5.1e-4,3.24e-4 5.1e-4,0.0016 0,0.002 -0.23219,0.147507 -0.39453,0.386852 -0.39453,0.65039 0,0.23192 0.11607,0.453991 0.30078,0.597656 l 0.002,0.002 0.002,0.002 c 0.16865,0.126483 0.37718,0.219265 0.62696,0.292968 0.2363,0.06973 0.55626,0.153599 0.96093,0.251954 0.4648,0.113454 0.83813,0.248587 1.11328,0.396484 0.27906,0.148141 0.47669,0.317492 0.60352,0.5 v 0.002 l 0.002,0.002 c 0.12836,0.177259 0.18946,0.369308 0.18946,0.605469 0,0.384836 -0.0912,0.694628 -0.26758,0.955078 -0.1757,0.255562 -0.43403,0.455465 -0.80469,0.599609 -0.36608,0.140274 -0.82816,0.214844 -1.38672,0.214844 -0.52883,0 -0.96904,-0.08132 -1.32617,-0.234375 -0.36787,-0.15766 -0.62097,-0.345803 -0.77539,-0.552734 -0.16499,-0.224388 -0.23438,-0.425939 -0.23438,-0.621094 0,-0.110436 0.0301,-0.178571 0.10938,-0.257812 0.0756,-0.07556 0.15089,-0.107422 0.28125,-0.107422 0.12146,0 0.17563,0.02585 0.20508,0.05273 0.0593,0.05411 0.12733,0.142986 0.19726,0.269531 l 0.002,0.002 v 0.002 c 0.17432,0.303005 0.39031,0.54365 0.65039,0.705078 h 0.002 c 0.27664,0.168793 0.62458,0.240234 1.03516,0.240234 0.34581,0 0.65373,-0.07728 0.90039,-0.248047 h 0.002 c 0.2406,-0.16797 0.40625,-0.40848 0.40625,-0.679687 0,-0.335171 -0.1574,-0.642881 -0.43359,-0.808594 -0.24765,-0.151033 -0.59838,-0.269051 -1.08008,-0.384766 h -0.002 c -0.5204,-0.129261 -0.94135,-0.26361 -1.25782,-0.398437 l -0.004,-0.002 c -0.30106,-0.134085 -0.53164,-0.303966 -0.70313,-0.507813 -0.16127,-0.191701 -0.24219,-0.41787 -0.24219,-0.716797 0,-0.259427 0.0737,-0.497008 0.23438,-0.736328 0.15577,-0.232069 0.3864,-0.421462 0.71094,-0.568359 0.32167,-0.147432 0.7212,-0.226563 1.20312,-0.226563 z"
           id="path24582" />
      </g>
    </g>
  </g>
</svg>
